<svg width="603" height="448" viewBox="0 0 603 448" fill="none" xmlns="http://www.w3.org/2000/svg">
<g clip-path="url(#clip0_70_10632)">
<path d="M17.0565 379.413V368.053H38.9077V353.73H33.9513V347.046H55.5864V334.002H70.3609V304.371H74.588V290.573H76.1275V304.371H78.815V334.002H96.3716V315.191H109.593V294.979H142.748V301.137H139.952V345.685H154.295V333.019H163.357V307.362H168.218V273.177H170.757V307.362H174.633V333.019H184.681V350.536H191.974V337.155H198.119V350.536H201.387V323.047H204.831V289.562H207.532V313.224L217.363 323.047H220.429V287.581H253.597V293.739H250.802V338.287H265.144V325.634H265.711V303.536H274.179V299.965H279.054V265.779H281.593V299.965H285.469V303.536H290.52V325.634H295.503V343.138H301.662V342.384H302.81V329.771H308.968V342.384H312.209V315.65H315.68V282.178H318.367V305.84L328.213 315.65H340.84V323.047H375.251V342.384H376.547V296.138H401.369V336.846H412.484V334.999H451.176V315.65H486.086V334.999H495.094V286.8H518.931V307.915H542.659V356.29H547.845V334.002H555.583V262.478H557.474V334.002H567.09V365.143H579.285V379.413H591.804V443.621H11.1953V379.413H17.0565Z" fill="#60DCE2"/>
<path d="M343.569 4.21765L381.815 41.4757C385.651 45.0922 388.728 49.4343 390.865 54.2491C393.003 59.0639 394.159 64.255 394.265 69.52C394.372 74.7849 393.427 80.0184 391.486 84.9154C389.545 89.8124 386.647 94.275 382.96 98.043C379.273 101.811 374.871 104.809 370.012 106.863C365.152 108.917 359.931 109.985 354.653 110.005C349.375 110.025 344.146 108.997 339.271 106.98C334.395 104.963 329.971 101.999 326.255 98.259L288.009 60.9874L302.513 46.2324L340.692 83.5444C342.489 85.29 344.614 86.6654 346.944 87.5918C349.274 88.5183 351.764 88.9777 354.273 88.944C356.781 88.9102 359.258 88.3838 361.562 87.3949C363.866 86.406 365.952 84.974 367.702 83.1806C369.452 81.3871 370.83 79.2674 371.759 76.9425C372.687 74.6175 373.148 72.1328 373.114 69.6303C373.08 67.1278 372.552 64.6564 371.561 62.3573C370.57 60.0582 369.135 57.9764 367.337 56.2308L329.132 18.9592L343.569 4.21765Z" fill="#11824E"/>
<path d="M303.089 44.8838L288.625 59.7278L305.165 75.7723L319.629 60.9284L303.089 44.8838Z" fill="#C0414C"/>
<path d="M343.573 4.22723L329.137 18.9774L345.572 34.9913L360.008 20.2412L343.573 4.22723Z" fill="#C0414C"/>
<path d="M338.761 9.13599L377.007 46.4076C384.552 53.7624 388.86 63.8065 388.983 74.3303C389.105 84.8542 385.033 94.9957 377.662 102.524C370.291 110.052 360.224 114.35 349.677 114.473C339.129 114.595 328.965 110.532 321.42 103.177L283.188 65.9057L297.624 51.2046L335.884 88.4762C337.679 90.2245 339.801 91.603 342.13 92.5329C344.459 93.4628 346.948 93.926 349.456 93.896C351.964 93.866 354.442 93.3433 356.748 92.3579C359.053 91.3725 361.142 89.9436 362.894 88.1528C364.646 86.362 366.028 84.2444 366.96 81.9209C367.892 79.5974 368.356 77.1134 368.326 74.6109C368.296 72.1084 367.772 69.6363 366.785 67.3358C365.797 65.0352 364.365 62.9513 362.57 61.203L324.324 23.891L338.761 9.13599Z" fill="#1BA363"/>
<path d="M298.303 49.8458L283.839 64.6898L300.379 80.7343L314.843 65.8904L298.303 49.8458Z" fill="#EB4E63"/>
<path d="M338.758 9.12822L324.321 23.8784L340.757 39.8923L355.193 25.1422L338.758 9.12822Z" fill="#EB4E63"/>
<path d="M92.6445 280.467L76.1143 282.474L64.1353 283.93C61.961 295.99 73.7239 365.641 73.7239 365.641C72.0358 392.362 80.3684 436.587 80.3684 436.587L88.1203 437.341C86.3511 396.917 92.6445 377.162 91.3345 312.025C91.3389 311.858 91.3925 311.696 91.4886 311.559C91.5846 311.423 91.7189 311.318 91.8747 311.257C91.9726 311.214 92.0783 311.191 92.1853 311.189C92.3434 311.193 92.4976 311.239 92.631 311.324L92.6445 280.467Z" fill="#F9AF92"/>
<path d="M78.329 448C77.3161 446.989 78.329 442.3 78.329 442.3C78.329 439.255 76.4113 431.898 78.0589 430.712C83.7445 426.575 88.9845 428.475 90.389 431.224C91.6314 433.663 90.2404 439.673 93.7247 441.64C96.3042 443.109 94.9942 447.259 94.8862 448H78.329Z" fill="#3E2D51"/>
<path d="M63.4732 286.18C61.6334 294.02 61.8708 302.202 64.162 309.923L68.7942 355.535V364.321C68.7942 364.321 85.0003 368.08 92.6441 364.321L99.2076 303.118C99.2076 303.118 103.165 287.298 63.4732 286.18Z" fill="#3E2D51"/>
<path d="M132.16 435.724L124.233 436.883C117.561 410.378 108.594 398.547 107.325 369.212C106.69 354.12 92.9957 311.674 92.9957 311.674C92.6173 311.535 92.2475 311.373 91.8883 311.189C79.3286 305.355 76.6816 289.535 76.1279 282.474L114.671 277.785C117.615 320.527 123.409 376.812 132.16 435.724Z" fill="#F8C6A3"/>
<path d="M122.518 448C121.316 440.521 122.963 436.883 122.963 436.883C122.963 436.883 120.262 432.935 121.748 431.992C128.203 427.707 131.012 432.073 131.012 432.073C132.16 426.157 133.619 429.593 133.619 429.593C133.619 429.593 136.32 437.463 138.508 438.433C140.695 439.403 149.231 440.697 148.434 446.518C148.339 447.245 148.231 447.636 148.434 447.973L122.518 448Z" fill="#3E2D51"/>
<path d="M76.1143 294.44C76.1143 294.44 79.45 307.915 91.1724 314.652C91.1724 314.652 100.261 354.552 101.774 359.2V364.981C101.774 364.981 120.073 367.205 126.231 363.108C126.231 363.108 122.099 295.505 114.941 283.121C107.784 270.738 76.1143 294.44 76.1143 294.44Z" fill="#624889"/>
<path d="M100.599 191.586C100.599 191.586 128.622 209.899 132.255 222.417C135.888 234.935 126.853 232.253 121.924 228.063C116.994 223.872 95.0215 193.89 95.0215 193.89L100.599 191.586Z" fill="#F9AF92"/>
<path d="M100.991 187.975C100.991 193.365 99.9375 198.229 96.5207 195.925C93.1039 193.621 92.9419 188.635 97.7226 183.407C97.7226 183.407 100.991 185.778 100.991 187.975Z" fill="#F9AF92"/>
<path d="M95.1025 176.09C95.1025 176.09 101.855 174.365 101.666 176.009C101.477 177.653 95.5886 178.192 95.5886 178.192C95.3332 177.913 95.1542 177.573 95.0691 177.205C94.9839 176.836 94.9954 176.453 95.1025 176.09Z" fill="#F09988"/>
<path d="M97.236 161.941C94.2244 154.705 77.7887 162.615 77.3431 167.709C76.8974 172.802 78.464 188.797 90.0243 190.225C102.152 191.721 100.018 168.517 97.236 161.941Z" fill="#F8C6A3"/>
<path d="M92.6042 179.068C92.6042 179.068 96.4667 188.231 92.2396 190.212C88.0125 192.192 78.8426 178.987 92.6042 179.068Z" fill="#F9AF92"/>
<path d="M91.7399 188.366C91.4939 192.407 91.5571 196.461 91.9289 200.493C91.9289 200.493 88.3501 204.63 79.1396 198.337C79.1396 198.337 80.9763 188.5 79.7609 184.161L80.5442 183.137C82.7265 182.668 85.0031 182.925 87.0251 183.869C89.0472 184.813 90.7033 186.393 91.7399 188.366Z" fill="#F8C6A3"/>
<path d="M100.532 156.794C96.6421 159.031 93.1307 155.77 84.6766 156.983C67.4712 159.475 71.3876 181.237 79.7608 184.215C82.1497 185.216 84.8377 185.237 87.2419 184.274C89.6462 183.31 91.5728 181.44 92.604 179.068C91.5777 177.518 91.8478 172.654 93.6169 172.735C93.8359 172.718 94.056 172.746 94.2641 172.816C94.4721 172.887 94.6638 172.998 94.8277 173.144C94.9915 173.29 95.1243 173.467 95.2179 173.666C95.3115 173.864 95.3641 174.079 95.3726 174.298C96.671 170.923 97.1342 167.285 96.7231 163.693C101.679 163.383 100.532 156.794 100.532 156.794Z" fill="#624889"/>
<path d="M118.98 251.522C118.98 251.522 119.655 205.802 106.987 199.617C93.0093 192.785 69.173 196.235 60.8809 203.66C53.6962 210.033 62.3934 247.803 62.6095 262.949C62.8256 278.095 60.2866 299.587 60.2866 299.587C60.2866 299.587 67.6199 301.851 83.9745 301.851C96.6094 301.727 109.052 298.751 120.371 293.146L118.98 251.522Z" fill="#EF744B"/>
<path d="M125.395 232.024C125.498 232.153 125.593 232.288 125.678 232.429L125.395 232.024Z" fill="#F9AF92"/>
<path d="M94.5348 195.049C89.045 192.165 82.7849 191.076 76.6406 191.936L72.9268 197.623C72.9268 197.623 73.575 200.075 95.021 196.693L94.5348 195.049Z" fill="#D45232"/>
<path d="M109.39 201.436C102.314 197.865 99.7478 207.001 102.908 215.868C106.068 224.734 133.105 239.705 133.105 227.726C133.105 221.878 121.883 207.743 109.39 201.436Z" fill="#F8C6A3"/>
<path d="M100.018 189.498C100.393 188.758 100.592 187.941 100.599 187.112C100.289 185.776 99.6798 184.528 98.8165 183.461C98.8165 183.461 97.6145 182.841 97.9386 185.873C98.0872 187.369 96.102 189.727 95.9129 192.422C95.7238 195.117 97.7226 197.502 98.965 195.925C100.207 194.348 100.018 189.498 100.018 189.498Z" fill="#F8C6A3"/>
<path d="M102.639 200.641C102.639 200.641 109.486 195.063 127.299 214.035C127.299 214.035 130.189 227.605 120.614 231.553C120.614 231.553 111.619 228.44 107.797 225.57C103.976 222.7 97.061 208.16 102.639 200.641Z" fill="#D45232"/>
<path d="M530.275 77.3459H364.325C358.873 77.3459 354.453 81.756 354.453 87.1961V336.387C354.453 341.827 358.873 346.238 364.325 346.238H530.275C535.727 346.238 540.147 341.827 540.147 336.387V87.1961C540.147 81.756 535.727 77.3459 530.275 77.3459Z" fill="#1B5289"/>
<path d="M525.238 77.3459H359.288C353.836 77.3459 349.416 81.756 349.416 87.1961V336.387C349.416 341.827 353.836 346.238 359.288 346.238H525.238C530.69 346.238 535.11 341.827 535.11 336.387V87.1961C535.11 81.756 530.69 77.3459 525.238 77.3459Z" fill="#4677BC"/>
<path d="M528.736 92.5052H355.79V326.537H528.736V92.5052Z" fill="#EF744B"/>
<path d="M446.841 335.606C446.841 336.509 446.572 337.392 446.069 338.144C445.566 338.895 444.851 339.48 444.015 339.826C443.178 340.172 442.258 340.262 441.37 340.086C440.482 339.91 439.666 339.475 439.025 338.836C438.385 338.197 437.949 337.383 437.773 336.497C437.596 335.611 437.687 334.692 438.033 333.858C438.38 333.023 438.966 332.31 439.719 331.808C440.472 331.306 441.357 331.038 442.263 331.038C443.477 331.038 444.641 331.519 445.5 332.376C446.359 333.232 446.841 334.394 446.841 335.606Z" fill="#1B5289"/>
<path d="M444.235 85.6464C444.235 86.0388 444.118 86.4223 443.9 86.7483C443.681 87.0743 443.37 87.3282 443.006 87.4777C442.643 87.6273 442.243 87.6657 441.858 87.5881C441.472 87.5106 441.118 87.3206 440.841 87.0422C440.564 86.7639 440.376 86.4097 440.301 86.0246C440.226 85.6394 440.267 85.2407 440.42 84.879C440.572 84.5173 440.829 84.2089 441.157 83.9929C441.485 83.7769 441.87 83.663 442.263 83.6656C442.523 83.6656 442.781 83.717 443.021 83.8167C443.261 83.9164 443.479 84.0625 443.662 84.2466C443.846 84.4307 443.991 84.6492 444.089 84.8894C444.187 85.1297 444.237 85.387 444.235 85.6464Z" fill="#1B5289"/>
<path d="M401.978 220.342C411.539 214.952 461.805 215.774 471.488 233.911C481.171 252.048 408.946 236.08 408.946 236.08L401.978 220.342Z" fill="#11824E"/>
<path d="M353.508 249.703C352.157 251.051 350.807 252.291 349.456 253.517C356.537 243.85 362.01 233.108 365.662 221.703C365.662 221.703 356.789 222.255 354.291 216.11C354.291 216.11 289.602 275.238 300.825 294.076C312.047 312.914 371.956 281.316 371.956 281.316L382.76 229.141C382.76 229.141 372.901 231.431 353.508 249.703Z" fill="#11824E"/>
<path d="M487.248 263.933C487.255 264.009 487.255 264.086 487.248 264.162C486.951 268.204 486.303 273.217 485.438 278.688C485.445 278.764 485.445 278.841 485.438 278.917C482.981 294.548 478.78 313.952 475.985 326.551H367.013C366.486 317.927 365.662 301.191 365.595 284.428C365.595 264.014 366.756 243.572 371.267 237.711C374.287 233.967 378.189 231.027 382.625 229.154C383.156 228.912 383.696 228.683 384.245 228.467C390.468 226.124 396.985 224.65 403.611 224.088C405.921 223.832 408.325 223.656 410.796 223.522H411.161C412.7 223.441 414.267 223.387 415.86 223.36C421.344 223.225 427.151 223.36 433.228 223.602C435.321 223.71 437.388 223.885 439.386 224.155C442.731 224.579 446.044 225.232 449.299 226.109C449.536 226.154 449.77 226.213 450.001 226.284C458.027 228.483 465.596 232.093 472.352 236.943C476.244 239.696 479.695 243.022 482.589 246.806C484.728 249.508 486.257 252.638 487.073 255.983C487.073 255.983 487.073 255.983 487.073 256.05C487.446 258.661 487.505 261.308 487.248 263.933Z" fill="#FFE668"/>
<path d="M455.282 190.333C443.789 218.374 412.336 209.454 409.716 196.208C408.865 191.963 409.338 185.064 410.85 177.963C411.188 176.36 411.593 174.743 412.039 173.139C415.078 162.292 420.493 152.293 427.421 151.956C451.528 150.757 466.775 162.278 455.282 190.333Z" fill="#F8C6A3"/>
<path d="M419.683 156.08C419.683 156.08 434.957 150.595 452.163 162.346C452.163 162.346 450.812 179.971 449.462 187.651C449.462 187.651 455.742 192.543 444.06 204.778C444.06 204.778 453.513 207.109 464.007 183.137C473.069 162.346 459.131 158.734 459.131 158.734C459.131 158.734 459.807 144.72 444.478 142.012C429.15 139.304 420.98 142.389 420.534 134.789C420.088 127.19 402.356 147.24 419.683 156.08Z" fill="#FFE668"/>
<path d="M434.862 175.847C434.349 177.451 433.215 178.542 432.323 178.246C431.432 177.95 431.121 176.427 431.621 174.823C432.121 173.22 433.269 172.128 434.16 172.425C435.051 172.721 435.389 174.244 434.862 175.847Z" fill="#231B30"/>
<path d="M419.764 172.479C419.251 174.082 418.116 175.174 417.225 174.877C416.334 174.581 416.009 173.058 416.523 171.455C417.036 169.851 418.17 168.76 419.062 169.056C419.953 169.353 420.264 170.821 419.764 172.479Z" fill="#231B30"/>
<path d="M421.654 175.794C421.654 175.794 416.333 180.887 413.767 179.028C411.201 177.168 411.201 184.647 419.885 184.849C419.885 184.849 423.126 181.723 421.654 175.794Z" fill="#F09988"/>
<path d="M414.403 186.856C414.403 186.856 414.065 189.902 419.332 190.899C422.531 191.475 425.829 191.061 428.785 189.713C428.785 189.713 424.734 199.617 417.104 197.165C410.837 195.157 414.403 186.856 414.403 186.856Z" fill="#231B30"/>
<path d="M439.535 182.827C439.681 183.476 439.621 184.154 439.364 184.767C439.107 185.38 438.665 185.898 438.1 186.249C437.535 186.601 436.874 186.769 436.209 186.73C435.544 186.69 434.908 186.446 434.388 186.03C433.869 185.615 433.491 185.048 433.308 184.409C433.125 183.77 433.146 183.09 433.367 182.463C433.588 181.837 433.999 181.294 434.543 180.91C435.086 180.526 435.736 180.32 436.402 180.321C437.149 180.249 437.894 180.47 438.48 180.938C439.065 181.407 439.444 182.085 439.535 182.827Z" fill="#F6B190"/>
<path d="M414.7 177.505C414.242 178.063 413.585 178.422 412.868 178.508C412.15 178.593 411.427 178.398 410.851 177.963C411.188 176.359 411.593 174.742 412.039 173.139C412.521 173.234 412.98 173.421 413.39 173.691C414.066 174.028 414.583 174.616 414.828 175.33C415.074 176.044 415.027 176.825 414.7 177.505Z" fill="#F6B190"/>
<path d="M434.241 164.394C436.326 164.712 438.215 165.799 439.535 167.439L434.241 164.394Z" fill="#FFE668"/>
<path d="M421.357 162.292C421.357 162.292 417.873 161.268 417.157 163.141L421.357 162.292Z" fill="#FFE668"/>
<path d="M449.447 187.651C449.447 187.651 455.889 183.609 459.184 188.379C462.48 193.149 451.932 200.924 447.354 199.051C442.776 197.178 449.447 187.651 449.447 187.651Z" fill="#F8C6A3"/>
<path d="M416.766 205.101L415.415 231.485C415.415 231.485 421.438 236.956 439.468 231.485C439.468 231.485 437.253 210.438 448.34 199.334C448.34 199.334 446.531 198.903 443.627 198.378C443.695 198.378 436.402 212.068 416.766 205.101Z" fill="#F9AF92"/>
<path d="M487.248 263.933C487.255 264.009 487.255 264.086 487.248 264.162C486.951 268.204 486.303 273.217 485.439 278.688C485.445 278.764 485.445 278.841 485.439 278.917C482.981 294.548 478.781 313.952 475.985 326.551H427.529C425.692 302.929 424.436 270.387 426.503 256.926C431.218 251.741 436.334 246.933 441.804 242.548C442.152 242.298 442.486 242.028 442.803 241.74C448.205 236.916 449.691 228.467 450.028 226.311C458.054 228.51 465.623 232.12 472.379 236.97C476.271 239.723 479.722 243.049 482.616 246.833C484.755 249.535 486.284 252.665 487.1 256.01C487.1 256.01 487.1 256.01 487.1 256.077C487.463 258.68 487.512 261.318 487.248 263.933Z" fill="#1BA363"/>
<path d="M410.823 223.508C409.28 225.963 407.926 228.53 406.772 231.189C403.872 237.851 402.014 244.918 401.262 252.142C401.181 252.87 401.1 253.854 400.991 255.039C400.991 255.336 400.991 255.659 400.897 255.956C399.735 269.606 397.264 306.379 395.927 326.551H367.013C366.486 317.927 365.662 301.191 365.595 284.428C365.595 264.014 366.756 243.572 371.267 237.711C374.287 233.967 378.189 231.027 382.625 229.154C383.156 228.912 383.696 228.683 384.245 228.467C390.468 226.124 396.985 224.65 403.611 224.088C405.948 223.818 408.352 223.683 410.823 223.508Z" fill="#1BA363"/>
<path d="M354.237 216.11C354.237 216.11 353.359 212.526 356.546 204.293C359.733 196.06 367.971 191.371 367.971 191.371L381.125 204.845C381.125 204.845 373.9 219.021 360.111 224.721C350.091 228.831 354.237 216.11 354.237 216.11Z" fill="#F9AF92"/>
<path d="M371.712 188.298C369.39 196.598 365.059 204.201 359.099 210.437C358.773 210.775 358.526 211.18 358.375 211.623C358.224 212.066 358.172 212.537 358.223 213.003C358.275 213.468 358.428 213.917 358.673 214.316C358.918 214.716 359.247 215.057 359.639 215.315C362.11 216.919 365.513 218.563 367.917 217.539C372.104 215.747 381.341 201.032 382.422 193.392C383.502 185.751 371.712 188.298 371.712 188.298Z" fill="#EB4E63"/>
<path d="M395.36 187.678C395.979 186.137 396.288 184.489 396.269 182.829C396.25 181.168 395.903 179.528 395.249 178.001C394.594 176.475 393.644 175.092 392.454 173.931C391.263 172.771 389.855 171.856 388.31 171.239L374.413 165.741C372.86 165.121 369.484 169.878 366.891 176.359C364.298 182.841 363.434 188.595 364.987 189.215L378.883 194.766C380.431 195.383 382.086 195.689 383.753 195.666C385.419 195.643 387.065 195.293 388.596 194.634C390.127 193.976 391.512 193.023 392.673 191.829C393.833 190.635 394.746 189.225 395.36 187.678Z" fill="white"/>
<path d="M364.217 186.843C365.568 187.368 368.39 183.313 370.605 177.788C372.82 172.263 373.563 167.358 372.253 166.833C354.399 159.704 334.736 135.288 331.076 130.612C331.014 130.534 330.932 130.474 330.839 130.438C330.746 130.402 330.645 130.391 330.547 130.406C330.448 130.421 330.355 130.461 330.277 130.524C330.199 130.586 330.139 130.668 330.103 130.76L319.434 157.346L308.765 183.946C308.73 184.039 308.719 184.139 308.734 184.237C308.749 184.335 308.788 184.428 308.849 184.507C308.91 184.585 308.991 184.647 309.082 184.685C309.174 184.724 309.274 184.738 309.373 184.727C315.248 183.852 346.363 179.715 364.217 186.843Z" fill="#EB4E63"/>
<path d="M325.471 159.772C319.38 174.958 311.494 186.102 307.915 184.606C304.336 183.11 306.267 169.662 312.358 154.463C318.449 139.263 326.363 128.119 329.995 129.575C333.628 131.03 331.589 144.572 325.471 159.772Z" fill="#C0414C"/>
<path d="M325.093 159.61C319.259 174.15 311.709 184.808 308.225 183.42C304.741 182.032 306.645 169.11 312.479 154.571C318.313 140.031 325.863 129.359 329.347 130.707C332.831 132.054 330.873 145.071 325.093 159.61Z" fill="#A3313F"/>
<path d="M375.346 195.885C375.346 195.885 367.985 187.22 365.217 187.907C362.448 188.595 364.839 191.236 364.839 191.236C364.839 191.236 360.585 190.791 360.085 192.893C359.785 193.925 359.661 195 359.72 196.073C359.72 196.073 356.385 196.491 357.533 198.499C358.681 200.507 355.953 201.544 356.547 204.293C357.141 207.042 361.719 211.583 363.137 210.95C364.555 210.316 362.948 205.56 362.948 205.56C362.948 205.56 364.717 208.969 366.662 208.389C368.607 207.81 365.892 199.631 365.892 199.631C365.892 199.631 369.944 205.021 371.875 203.673C373.806 202.326 369.606 195.17 369.606 195.17C369.606 195.17 376.372 201.019 375.346 195.885Z" fill="#F8C6A3"/>
<path d="M376.791 200.87C376.791 200.87 380.843 201.867 381.194 203.997C381.545 206.126 378.304 205.843 376.791 200.87Z" fill="#F8C6A3"/>
<path d="M426.503 256.926C429.407 243.141 447.895 219.088 463.412 223.495C478.93 227.901 482.63 246.779 482.63 246.779C482.63 246.779 472.636 241.659 456.417 242.737C440.197 243.815 426.503 256.926 426.503 256.926Z" fill="#11824E"/>
<path d="M400.91 255.942C400.91 255.942 379.505 231.89 385.217 226.297C397.142 214.574 413.402 219.56 413.402 219.56C413.402 219.56 402.301 237.832 400.91 255.942Z" fill="#11824E"/>
<path d="M516.811 326.551H475.918C474.191 313.453 471.202 300.551 466.991 288.026C461.954 256.926 482.63 246.779 482.63 246.779C482.63 246.779 500.186 252.169 516.811 326.551Z" fill="#11824E"/>
<path d="M482.63 326.551C491.503 282.649 510.356 254.393 516.811 252.533C523.267 250.674 530.316 254.406 532.058 263.825C533.8 273.244 516.811 326.551 516.811 326.551H482.63Z" fill="#11824E"/>
<path d="M522.334 261.211C517.675 258.516 516.811 252.533 516.811 252.533C516.885 248.731 517.794 244.991 519.471 241.576C521.148 238.161 523.555 235.154 526.521 232.765C526.521 232.765 528.29 233.116 527.493 235.46C526.696 237.805 525.076 240.365 526.237 242.75C527.399 245.135 533.152 240.19 534.259 238.479C535.366 236.767 546.697 223.01 548.953 227.119L548.872 227.241C547.818 228.467 537.851 240.311 538.459 241.066C539.215 241.78 550.236 232.321 553.409 232.617C556.11 232.86 555.354 235.002 555.354 235.002C554.135 235.53 553.019 236.269 552.059 237.185C552.059 237.185 554.193 237.185 554.057 238.95C552.798 239.723 551.697 240.73 550.816 241.915C550.816 241.915 551.964 242.117 549.898 245.014C548.831 246.469 527.007 263.919 522.334 261.211Z" fill="#F8C6A3"/>
<path d="M552.086 237.158C551.456 237.168 550.835 237.307 550.261 237.567C549.687 237.826 549.173 238.201 548.75 238.667C546.778 240.379 541.201 244.664 539.297 245.405C537.392 246.146 537.946 244.637 539.702 243.99C541.457 243.343 550.101 235.393 552.086 237.158Z" fill="#F9AF92"/>
<path d="M550.83 241.874C549.601 240.931 547.777 242.737 546.778 243.896C545.779 245.055 540.917 249.286 539.512 249.515C538.108 249.744 538.905 248.949 540.404 248.167C541.903 247.386 547.912 241.228 549.506 241.026C551.1 240.823 550.83 241.874 550.83 241.874Z" fill="#F9AF92"/>
<path d="M526.697 243.114C526.697 243.114 527.52 247.52 525.886 249.852C525.832 249.825 529.789 246.146 526.697 243.114Z" fill="#F9AF92"/>
<path d="M538.459 241.012C536.811 240.716 541.228 235.501 544.482 231.202C547.737 226.904 548.952 227.066 548.952 227.066L548.871 227.187C547.818 228.413 537.851 240.257 538.459 241.012Z" fill="#F9AF92"/>
<path d="M530.505 243.02C530.505 243.02 530.586 243.761 530.816 244.812C530.941 245.391 531.126 245.956 531.37 246.496C531.437 246.631 531.505 246.779 531.586 246.914L531.748 247.17L531.856 247.413C532.017 247.843 532.081 248.303 532.045 248.76C531.87 250.069 531.558 251.356 531.113 252.6C530.989 252.999 530.912 253.41 530.884 253.827C530.864 253.992 530.864 254.16 530.884 254.325C530.79 254.179 530.717 254.02 530.667 253.854C530.552 253.414 530.507 252.96 530.532 252.506C530.532 251.401 530.951 249.973 531.032 248.679C531.076 248.403 531.076 248.121 531.032 247.844L530.924 247.601C530.924 247.682 530.924 247.601 530.924 247.601V247.467C530.83 247.295 530.754 247.114 530.694 246.928C530.495 246.3 530.395 245.645 530.397 244.987C530.33 244.33 530.366 243.666 530.505 243.02Z" fill="#F9AF92"/>
<path d="M225.413 235.258L243.091 244.219C249.065 233.517 252.58 221.624 253.382 209.4L259.297 208.861C259.297 208.861 258.352 249.528 250.748 257.195C243.145 264.863 212.029 243.33 212.029 243.33L225.413 235.258Z" fill="#F8C6A3"/>
<path d="M234.907 198.782C234.907 198.782 232.057 201.719 232.057 203.377C232.057 205.034 236.649 205.667 236.649 205.667C236.649 205.667 239.08 205.802 238.796 207.015C238.512 208.228 238.08 206.826 236.095 207.635C234.11 208.443 225.723 211.246 225.723 211.246L222.604 208.322C222.604 208.322 222.604 202.15 224.697 201.436C226.295 201.084 227.711 200.165 228.681 198.849C229.356 197.717 229.383 198.687 230.734 198.121C232.084 197.556 234.177 197.502 234.907 198.782Z" fill="#F9AF92"/>
<path d="M246.967 199.429C246.967 199.429 249.817 202.366 249.817 204.023C249.817 205.681 245.225 206.301 245.225 206.301C245.225 206.301 242.794 206.449 243.078 207.648C243.361 208.847 243.793 207.46 245.779 208.268C247.764 209.077 256.151 211.879 256.151 211.879L259.297 208.861C259.297 208.861 259.297 202.703 257.204 201.989C255.61 201.644 254.194 200.734 253.22 199.429C252.545 198.283 252.531 199.267 251.167 198.701C249.803 198.135 247.696 198.081 246.967 199.429Z" fill="#F8C6A3"/>
<path d="M227.776 209.925C227.776 209.925 214.649 233.897 205.223 237.589L199.686 228.467L222.577 208.255L227.776 209.925Z" fill="#F9AF92"/>
<path d="M147.07 448V445.305C147.07 442.206 149.974 436.573 149.974 434.525C149.974 432.477 157.982 436.209 157.982 436.209C158.177 438.46 159.129 440.578 160.683 442.219C161.39 443 161.927 443.917 162.262 444.914C162.596 445.911 162.721 446.966 162.628 448.014L147.07 448Z" fill="#3E2D51"/>
<path d="M201.778 448L200.428 447.353L199.78 448H194.472C193.945 446.477 192.163 440.697 193.77 436.695C195.647 432.059 201.454 433.299 201.454 433.299C201.454 433.299 205.384 438.77 207.667 439.753C209.949 440.737 218.646 444.254 219.673 446.491C219.983 447.178 219.456 447.636 219.673 447.973L201.778 448Z" fill="#3E2D51"/>
<path d="M161.317 277.704L144.814 279.725L132.66 281.194C130.526 292.998 144.814 360.386 144.814 360.386L147.772 437.005C149.451 437.836 151.3 438.268 153.174 438.268C155.048 438.268 156.897 437.836 158.576 437.005C158.576 437.005 165.558 370.169 165.558 360.386C165.558 348.03 160.358 309.68 160.358 309.68C160.363 309.513 160.416 309.352 160.513 309.215C160.609 309.078 160.743 308.973 160.899 308.912C160.997 308.869 161.102 308.846 161.209 308.845H161.358L161.317 277.704Z" fill="#11824E"/>
<path d="M204.102 435.239C204.102 435.239 202.359 438.069 192.46 436.587L183.668 361.397L162.06 309.411C161.669 309.262 161.291 309.087 160.926 308.912C148.15 302.983 145.463 286.894 144.896 279.725L184.06 274.942C185.789 299.965 201.468 335.283 204.048 355.98C206.438 375.653 204.102 435.239 204.102 435.239Z" fill="#1BA363"/>
<path d="M212.704 196.801C212.704 196.801 219.713 197.299 218.957 198.782C218.201 200.264 212.502 198.957 212.502 198.957C212.346 198.611 212.283 198.23 212.318 197.852C212.354 197.474 212.487 197.112 212.704 196.801Z" fill="#F09988"/>
<path d="M219.214 184.054C218.633 176.225 200.55 178.583 198.51 183.272C196.471 187.961 192.933 203.646 203.453 208.632C214.473 213.847 219.754 191.155 219.214 184.054Z" fill="#F8C6A3"/>
<path d="M209.396 198.836C209.396 198.836 210.166 208.753 205.533 209.306C200.901 209.858 196.363 194.456 209.396 198.836Z" fill="#F9AF92"/>
<path d="M205.641 207.406C204.126 211.178 202.902 215.062 201.981 219.021C201.981 219.021 197.282 221.824 190.516 212.971C190.516 212.971 195.364 204.199 195.58 199.698L196.647 198.97C198.863 199.204 200.942 200.155 202.566 201.678C204.19 203.201 205.27 205.213 205.641 207.406Z" fill="#F8C6A3"/>
<path d="M220.564 183.164C220.564 183.164 222.495 183.501 221.996 182.544C221.496 181.588 217.161 177.249 208.828 175.403C188.571 170.875 189.394 195.615 195.58 199.658C203.804 205.048 209.395 198.795 209.395 198.795C208.909 197.016 210.746 192.475 212.339 193.109C212.553 193.162 212.753 193.257 212.929 193.389C213.105 193.521 213.253 193.686 213.364 193.876C213.475 194.066 213.546 194.275 213.574 194.493C213.603 194.711 213.587 194.932 213.528 195.143C215.835 192.354 217.442 189.056 218.214 185.522C219.368 186.165 220.617 186.619 221.914 186.87C223.724 187.032 220.564 183.164 220.564 183.164Z" fill="#231B30"/>
<path d="M191.772 262.761C191.772 262.761 225.534 228.103 215.473 218.293C204.345 207.419 180.63 203.215 170.447 207.594C161.615 211.394 144.639 237.239 139.575 251.536C135.768 261.911 133.228 272.706 132.012 283.687C132.012 283.687 133.025 290.249 148.542 295.383C167.895 301.838 183.668 288.727 183.668 288.727L191.772 262.761Z" fill="#4677BC"/>
<path d="M222.685 254.81C222.744 254.964 222.794 255.122 222.833 255.282L222.685 254.81Z" fill="#F9AF92"/>
<path d="M213.974 216.946C213.974 216.946 218.714 219.425 234.785 239.018C234.785 239.018 232.921 249.542 219.025 251.496L204.034 243.209C204.034 243.209 206.195 219.264 213.974 216.946Z" fill="#5A9BDB"/>
<path d="M217.228 178.623C217.228 178.623 225.331 179.189 224.116 191.357C222.9 203.525 212.312 194.793 212.312 194.793C212.312 194.793 215.365 191.788 214.082 185.482C212.799 179.176 217.228 178.623 217.228 178.623Z" fill="#231B30"/>
<path d="M249.37 205.977V197.151C249.37 196.839 249.116 196.585 248.803 196.585H232.151C231.838 196.585 231.584 196.839 231.584 197.151V205.977C231.584 206.29 231.838 206.543 232.151 206.543H248.803C249.116 206.543 249.37 206.29 249.37 205.977Z" fill="#0B2728"/>
<path d="M207.762 212.728C203.56 208.5 198.53 205.179 192.987 202.972C183.655 199.226 171.744 204.05 173.756 212.728C175.768 221.406 202.117 212.728 202.117 212.728C203.987 212.443 205.891 212.443 207.762 212.728Z" fill="#5A9BDB"/>
<path d="M300.473 226.378C300.473 226.378 308.441 243.33 308.725 250.215C309.009 257.101 301.351 282.69 301.351 282.69H270.803L270.263 237.589L300.473 226.378Z" fill="#EB4E63"/>
<path d="M329.86 213.24H321.014C320.701 213.24 320.447 213.494 320.447 213.806V230.434C320.447 230.747 320.701 231 321.014 231H329.86C330.174 231 330.427 230.747 330.427 230.434V213.806C330.427 213.494 330.174 213.24 329.86 213.24Z" fill="#0B2728"/>
<path d="M277.34 429.526C277.34 429.526 276.395 427.397 280.243 427.693C284.092 427.99 284.727 428.542 284.997 437.261H280.5L277.34 429.526Z" fill="#3E2D51"/>
<path d="M272.693 276.128C267.546 280.98 263.716 287.055 261.562 293.785C259.408 300.516 259 307.681 260.377 314.612C260.377 314.612 260.377 314.868 260.377 315.313C259.92 321.573 259.988 327.861 260.579 334.11V334.177C260.579 334.582 260.66 334.973 260.714 335.363V335.498C260.714 335.875 260.809 336.239 260.863 336.603V336.751C260.863 337.115 260.957 337.465 261.025 337.816V337.937C261.025 338.287 261.133 338.638 261.2 338.988V339.069C261.268 339.419 261.336 339.77 261.39 340.12C262.078 343.637 262.916 346.521 263.685 349.296C263.685 349.472 263.793 349.647 263.834 349.822C263.874 349.997 263.956 350.253 264.01 350.469C264.158 350.981 264.293 351.506 264.428 352.018C264.428 352.099 264.428 352.18 264.428 352.261C264.563 352.84 264.712 353.42 264.847 354.013C264.847 354.013 264.847 354.08 264.847 354.12C264.995 354.754 265.117 355.387 265.238 356.047C266.589 363.822 262.673 375.087 266.67 387.605L266.9 388.374C266.9 388.454 266.9 388.535 266.967 388.603C267.035 388.67 267.102 389.074 267.17 389.33C267.164 389.397 267.164 389.465 267.17 389.532C267.251 389.856 267.332 390.193 267.426 390.543C267.426 390.624 267.426 390.705 267.426 390.786C267.507 391.082 267.575 391.392 267.656 391.702C267.737 392.012 267.656 391.904 267.656 392.012C267.75 392.403 267.845 392.807 267.939 393.238V393.346C268.034 393.737 268.115 394.154 268.21 394.572L268.291 394.949C268.372 395.327 268.466 395.717 268.547 396.108C268.547 396.202 268.547 396.283 268.547 396.378C268.655 396.849 268.75 397.348 268.858 397.846V398.183C268.939 398.601 269.033 399.019 269.114 399.45L269.195 399.8C269.29 400.326 269.398 400.865 269.506 401.404V401.579L269.79 403.007C269.79 403.182 269.857 403.344 269.884 403.519C269.965 403.951 270.06 404.382 270.141 404.867C270.141 404.975 270.141 405.096 270.208 405.217C270.316 405.756 270.411 406.295 270.519 406.834L270.6 407.306C270.695 407.737 270.776 408.182 270.857 408.653L270.938 409.071C271.032 409.61 271.14 410.149 271.235 410.688L271.329 411.214L271.532 412.305L271.667 413.006C271.667 413.356 271.788 413.693 271.856 414.03C271.923 414.367 271.937 414.542 271.991 414.784C272.045 415.027 272.14 415.62 272.207 416.038L272.342 416.738C272.342 417.021 272.437 417.304 272.491 417.587L272.626 418.342C272.632 418.454 272.632 418.566 272.626 418.679C272.752 419.298 272.86 419.905 272.95 420.498L273.031 420.902L273.193 421.832V422.02C273.314 422.708 273.436 423.368 273.544 424.001C274.314 428.407 274.814 431.372 274.814 431.372V446.019H284.713C284.713 446.019 280.81 429.782 280.81 423.691C280.81 397.348 277.163 365.938 277.704 353.999C277.704 353.42 277.704 352.813 277.812 352.193C277.812 352.086 277.812 351.991 277.812 351.897C277.812 351.291 277.906 350.671 277.96 350.024C277.96 349.916 277.96 349.795 277.96 349.674C277.96 349.013 278.082 348.326 278.149 347.652C278.149 347.585 278.149 347.504 278.149 347.423C278.149 346.723 278.298 346.008 278.365 345.294V345.173C278.46 344.432 278.541 343.677 278.635 342.923V342.64L278.919 340.362V340.133C279.122 338.53 279.338 336.913 279.567 335.323C279.567 335.323 283.025 313.116 285.753 311.513C287.387 310.543 300.608 274.834 300.608 274.834L272.693 276.128Z" fill="#F9AF92"/>
<path d="M339.732 446.019C338.981 445.388 338.101 444.928 337.153 444.672C335.208 443.109 330.238 436.425 329.212 433.056C328.348 430.186 327.362 426.642 326.349 422.721L324.998 417.331L324.877 416.859L324.472 415.216L324.35 414.677C324.215 414.124 324.067 413.572 323.932 413.019L323.81 412.521C323.175 409.826 322.527 407.131 321.906 404.436V404.207C321.757 403.587 321.609 402.98 321.474 402.361C321.474 402.199 321.474 402.051 321.366 401.902C321.217 401.283 321.082 400.676 320.947 400.056L320.866 399.733C320.717 399.1 320.569 398.466 320.434 397.819V397.698C319.988 395.69 319.542 393.656 319.083 391.783L319.002 391.419L318.638 389.802L318.516 389.249C318.408 388.724 318.286 388.212 318.178 387.713C318.178 387.511 318.097 387.323 318.043 387.12L317.719 385.652L317.598 385.086L316.666 380.733C316.666 380.464 316.544 380.208 316.49 379.952L316.288 378.955C316.288 378.672 316.166 378.389 316.099 378.119C316.031 377.85 315.977 377.499 315.91 377.203C315.842 376.906 315.788 376.65 315.734 376.367L315.572 375.559C315.572 375.262 315.45 374.98 315.383 374.683L315.248 374.009C315.14 373.524 315.045 373.053 314.964 372.662C314.958 372.595 314.958 372.527 314.964 372.46C314.897 372.082 314.816 371.719 314.748 371.368C314.681 371.018 314.748 371.072 314.667 370.924C314.586 370.775 314.559 370.438 314.518 370.209L314.437 369.792C314.437 369.563 314.356 369.347 314.316 369.158C314.275 368.97 314.316 368.943 314.316 368.835C314.316 368.727 314.248 368.444 314.208 368.269V368.04C314.208 367.797 314.127 367.595 314.1 367.42C314.073 367.245 314.032 367.002 314.005 366.746V366.463C314.005 366.288 314.005 366.127 314.005 365.938V365.534C314.005 365.358 314.005 365.183 313.938 364.995V364.456C313.938 364.28 313.938 364.105 313.938 363.917C313.938 363.728 313.938 363.472 313.938 363.229V362.758L313.857 361.801V361.599C313.465 356.654 312.965 349.404 312.128 341.171C311.79 326.712 310.129 293.672 301.986 274.915L282.836 275.36C283.619 290.263 269.142 306.352 286.766 323.559C286.766 323.694 286.874 323.856 286.928 324.004C286.953 324.1 286.985 324.195 287.022 324.287L287.171 324.691C287.171 324.826 287.265 324.961 287.306 325.109L287.468 325.54L287.63 326.025L287.806 326.51C287.806 326.685 287.927 326.874 287.995 327.049C288.062 327.224 288.103 327.373 288.17 327.548L288.548 328.639V328.774C288.674 329.115 288.796 329.466 288.913 329.825C288.913 329.973 289.007 330.122 289.061 330.27L289.345 331.092L289.507 331.577L289.791 332.426L289.966 332.951C290.061 333.248 290.169 333.544 290.263 333.854L290.425 334.339C290.561 334.743 290.696 335.161 290.844 335.579V335.768L291.33 337.263C291.33 337.371 291.398 337.465 291.425 337.56C291.56 337.964 291.681 338.355 291.817 338.772L291.979 339.258L292.303 340.295C292.303 340.47 292.411 340.659 292.478 340.834L292.802 341.912C292.802 342.074 292.91 342.222 292.951 342.384L293.316 343.57L293.437 343.96C293.748 344.998 294.058 346.049 294.355 347.073L294.477 347.504L294.801 348.609C294.801 348.784 294.896 348.946 294.936 349.121L295.22 350.132C295.22 350.307 295.314 350.482 295.368 350.671L295.625 351.654C295.625 351.816 295.719 351.978 295.76 352.14C295.855 352.53 295.949 352.921 296.057 353.298C296.073 353.394 296.096 353.489 296.125 353.581C296.233 354.053 296.354 354.525 296.462 354.929C296.455 355.019 296.455 355.109 296.462 355.198C296.543 355.562 296.624 355.913 296.692 356.249C296.759 356.586 296.692 356.546 296.786 356.694C296.881 356.842 296.908 357.26 296.962 357.53C297.016 357.799 297.029 357.839 297.056 358.001C297.083 358.163 297.165 358.513 297.205 358.769L297.286 359.2C297.286 359.47 297.367 359.712 297.408 359.968C297.448 360.225 297.408 360.211 297.408 360.319C297.408 360.683 297.516 361.033 297.556 361.356C298.907 372.702 300.973 377.728 307.536 390.368C307.861 390.988 308.171 391.608 308.482 392.227L308.738 392.766C308.981 393.251 309.211 393.737 309.441 394.235C309.522 394.383 309.589 394.545 309.67 394.707L310.535 396.607C310.535 396.715 310.629 396.836 310.683 396.957C310.913 397.483 311.156 398.022 311.372 398.547L311.615 399.127C311.844 399.652 312.061 400.191 312.277 400.717L312.425 401.067C312.682 401.714 312.938 402.414 313.181 402.994L313.371 403.479L313.938 404.988L314.14 405.514C314.613 406.794 315.059 408.06 315.491 409.314C315.491 409.502 315.612 409.677 315.68 409.853L316.166 411.308C316.166 411.456 316.274 411.604 316.315 411.753C316.517 412.359 316.72 412.965 316.909 413.572C316.909 413.666 316.976 413.76 317.003 413.868C317.165 414.367 317.328 414.879 317.476 415.377L317.638 415.876L318.084 417.345C318.113 417.424 318.135 417.505 318.151 417.587L318.651 419.271C318.651 419.406 318.732 419.528 318.759 419.662C318.894 420.093 319.016 420.511 319.124 420.929L319.245 421.333C319.394 421.859 319.529 422.371 319.664 422.856C320.758 426.898 321.528 430.024 321.96 431.83C321.924 432.29 321.829 432.743 321.676 433.178C321.19 434.875 320.042 438.406 319.664 439.915C319.205 441.815 320.717 446.895 321.149 448H322.392C322.392 447.07 322.581 443.122 323.567 442.26C324.492 442.105 325.442 442.217 326.306 442.582C327.169 442.947 327.91 443.551 328.442 444.321C329.018 445.297 329.707 446.201 330.495 447.016H341.069C340.681 446.614 340.229 446.277 339.732 446.019Z" fill="#F8C6A3"/>
<path d="M259.662 315.313C259.432 319.086 258.933 321.147 258.96 324.139C258.96 324.139 261.026 325.486 269.061 326.214C278.272 327.049 282.823 325.392 282.823 325.392C284.065 319.247 284.295 312.348 285.767 311.472C287.239 310.596 300.623 274.794 300.623 274.794L271.951 276.141C266.807 280.994 262.979 287.07 260.828 293.801C258.676 300.531 258.27 307.696 259.648 314.625C259.648 314.625 259.675 314.868 259.662 315.313Z" fill="#4677BC"/>
<path d="M284.956 323.398C284.956 323.532 285.591 325.217 285.645 325.351C285.699 325.486 289.561 326.699 297.718 325.944C306.834 325.095 311.223 323.088 311.223 323.088C312.13 306.491 309.046 289.919 302.229 274.753L281.04 275.198C281.796 290.142 267.318 306.217 284.956 323.398Z" fill="#5A9BDB"/>
<path d="M275.692 182.423C275.692 182.423 293.248 178.623 295.301 190.858C297.354 203.094 292.6 215.113 283.538 213.766C272.369 212.216 261.835 187.665 275.692 182.423Z" fill="#F8C6A3"/>
<path d="M285.199 213.672C285.199 213.672 284.092 217.04 286.064 219.169C286.064 219.169 287.414 220.813 284.983 222.08C280.085 224.448 274.497 224.984 269.236 223.589C272.721 215.895 272.572 205.061 272.572 205.061C273.896 206.166 278.541 204.994 285.199 213.672Z" fill="#F9AF92"/>
<path d="M272.464 208.551C274.131 208.164 275.859 208.121 277.542 208.425C279.226 208.729 280.83 209.372 282.255 210.316C282.255 210.316 287.063 207.716 288.508 204.926C288.508 204.926 289.291 199.267 291.209 197.65C293.127 196.033 292.965 201.409 292.965 201.409C295.787 198.205 297.241 194.027 297.016 189.767C296.49 182.908 292.1 181.979 292.1 181.979C292.1 181.979 283.349 176.386 276.34 179.62C269.331 182.854 258.311 190.656 272.464 208.551Z" fill="#EB4E63"/>
<path d="M322.905 234.544C322.354 233.029 321.956 231.463 321.717 229.868C321.879 229.195 322.379 225.219 322.379 225.219C322.379 225.219 323.635 225.61 323.459 227.524C323.283 229.437 323.959 229.356 323.959 229.356L327.389 226.769C328.469 225.961 330.292 225.422 330.887 225.705C331.481 225.988 330.333 226.729 330.333 226.729C330.333 226.729 332.602 226.095 332.048 227.443C331.494 228.79 331.305 228.197 331.616 229.464C331.927 230.731 330.846 231.593 330.806 232.442C330.765 233.291 328.402 235.676 326.484 237.28C324.566 238.883 322.905 234.544 322.905 234.544Z" fill="#F8C6A3"/>
<path d="M317.814 448C317.814 448 316.059 440.643 317.814 435.226C319.57 429.809 316.653 428.273 318.976 427.491C321.299 426.71 324.81 429.62 326.35 432.881C326.35 432.881 325.755 426.508 330.023 426.508C334.291 426.508 330.982 432.49 331.374 434.431C331.765 436.371 335.425 442.165 337.775 442.933C340.125 443.702 342.232 444.281 341.826 447.973L317.814 448Z" fill="#3E2D51"/>
<path d="M277.786 428.664C283.188 428.542 284.997 437.261 284.997 437.261C284.997 437.261 287.968 444.51 287.968 448.04H272.667C272.31 446.16 272.61 444.215 273.518 442.529C274.787 440.454 270.722 428.839 277.786 428.664Z" fill="#3E2D51"/>
<path d="M297.719 221.083C297.719 221.083 301.771 226.89 304.364 239.153C306.713 250.269 299.056 321.349 299.056 321.349C282.653 321.242 266.291 319.709 250.154 316.768C250.154 316.768 258.662 291.166 258.96 280.305C259.405 272.7 260.858 265.187 263.281 257.963C263.281 257.963 253.531 243.626 252.761 236.094C251.991 228.561 251.991 225.772 257.542 220.867C257.542 220.867 281.378 220.651 285.011 219.304C288.644 217.957 297.719 221.083 297.719 221.083Z" fill="#FFE668"/>
<path d="M295.571 221.096C295.571 221.096 289.832 231.054 295.571 236.687C297.327 238.411 313.952 265.752 323 263.084C323 263.084 325.161 263.879 326.512 235.811L323.405 233.358L318.719 248.504C316.108 245.899 313.888 242.931 312.129 239.692C306.646 229.451 303.269 220.611 295.571 221.096Z" fill="#F8C6A3"/>
<path d="M290.102 199.105C289.116 210.316 284.133 215.275 287.577 223.778C291.02 232.28 271.668 243.316 262.16 239.153C252.653 234.989 265.199 214.48 264.24 201.423C263.281 188.366 265.023 176.764 280.446 176.764C301.109 176.764 306.281 201.423 292.857 201.315C292.857 201.315 294.208 193.715 292.141 192.395C290.075 191.074 290.102 199.105 290.102 199.105Z" fill="#EB4E63"/>
<path d="M193.266 106.624C200.885 102.727 203.896 93.4045 199.99 85.8018C196.084 78.1991 186.741 75.1952 179.121 79.0924C171.501 82.9896 168.491 92.3122 172.397 99.9149C176.302 107.518 185.646 110.521 193.266 106.624Z" fill="#5A9BDB"/>
<path d="M182.075 89.1769L182.858 89.5407C183.089 89.65 183.34 89.7127 183.596 89.7251C183.851 89.7375 184.107 89.6994 184.348 89.613C184.589 89.5267 184.81 89.3937 184.999 89.2217C185.189 89.0497 185.342 88.8422 185.451 88.6109L187.841 83.5444C187.869 83.4868 187.907 83.4353 187.955 83.3926C188.002 83.35 188.058 83.3171 188.118 83.2958C188.178 83.2746 188.242 83.2653 188.306 83.2687C188.369 83.272 188.432 83.2879 188.489 83.3153C189.172 83.639 189.697 84.2196 189.95 84.9296C190.203 85.6396 190.164 86.4209 189.84 87.1017L188.381 90.2144L192.568 92.1818C193.212 92.476 193.715 93.0109 193.967 93.6713C194.22 94.3316 194.202 95.0646 193.918 95.7122L190.853 102.234C190.558 102.877 190.022 103.378 189.36 103.63C188.698 103.882 187.964 103.865 187.314 103.582L183.817 101.938C182.827 101.477 181.972 100.772 181.332 99.8894C180.69 99.0113 179.835 98.311 178.847 97.8547L178.226 97.5583L182.075 89.1769Z" fill="white"/>
<path d="M177.735 98.1417L176.085 97.3686L180.562 87.8545L182.212 88.6277C182.241 88.6412 182.267 88.6603 182.288 88.6838C182.31 88.7074 182.326 88.7349 182.337 88.7648C182.348 88.7948 182.353 88.8266 182.351 88.8584C182.35 88.8902 182.342 88.9215 182.329 88.9503L178.081 97.9764C178.054 98.0346 178.004 98.0796 177.944 98.1015C177.883 98.1233 177.816 98.1202 177.758 98.0929L177.735 98.1417Z" fill="#F9F5D4"/>
<path d="M261.592 126.529C262.895 128.654 264.8 130.347 267.066 131.393C269.331 132.439 271.857 132.793 274.324 132.409C276.791 132.025 279.088 130.92 280.927 129.235C282.765 127.55 284.063 125.359 284.655 122.939C285.247 120.519 285.108 117.978 284.255 115.637C283.401 113.296 281.873 111.259 279.861 109.784C277.849 108.309 275.444 107.461 272.95 107.347C270.456 107.234 267.984 107.86 265.846 109.147C264.42 110.007 263.179 111.14 262.193 112.48C261.207 113.82 260.496 115.341 260.1 116.956C259.705 118.571 259.634 120.248 259.89 121.891C260.146 123.534 260.724 125.11 261.592 126.529Z" fill="#5A9BDB"/>
<path d="M267.94 120.6L268.575 120.304C268.767 120.219 268.94 120.098 269.084 119.946C269.228 119.794 269.341 119.615 269.415 119.419C269.489 119.224 269.523 119.015 269.516 118.806C269.509 118.597 269.46 118.392 269.372 118.202L267.481 114.025C267.44 113.932 267.436 113.826 267.471 113.73C267.507 113.635 267.578 113.556 267.67 113.513C267.948 113.385 268.249 113.313 268.555 113.302C268.861 113.291 269.167 113.341 269.453 113.449C269.74 113.557 270.002 113.72 270.224 113.93C270.447 114.14 270.625 114.392 270.75 114.671L271.911 117.218L275.355 115.669C275.613 115.55 275.893 115.483 276.178 115.473C276.462 115.463 276.746 115.509 277.012 115.609C277.279 115.71 277.523 115.862 277.73 116.057C277.937 116.252 278.102 116.487 278.218 116.747L280.649 122.137C280.766 122.395 280.831 122.674 280.841 122.957C280.85 123.241 280.803 123.523 280.703 123.789C280.602 124.054 280.45 124.297 280.256 124.504C280.061 124.71 279.827 124.877 279.568 124.993L276.705 126.341C275.895 126.662 275.017 126.773 274.153 126.664C273.264 126.601 272.373 126.758 271.56 127.122L271.047 127.351L267.94 120.6Z" fill="white"/>
<path d="M271.211 128.016L269.858 128.627L266.334 120.855L267.688 120.244C267.712 120.233 267.738 120.227 267.765 120.226C267.791 120.225 267.818 120.23 267.843 120.239C267.868 120.249 267.89 120.263 267.91 120.281C267.929 120.299 267.945 120.321 267.956 120.345L271.295 127.711C271.313 127.736 271.325 127.764 271.331 127.794C271.336 127.824 271.335 127.855 271.327 127.884C271.318 127.913 271.304 127.94 271.284 127.963C271.264 127.986 271.239 128.004 271.211 128.016Z" fill="#F9F5D4"/>
<path d="M124.584 156.161C129.679 156.161 133.808 152.04 133.808 146.957C133.808 141.874 129.679 137.754 124.584 137.754C119.49 137.754 115.36 141.874 115.36 146.957C115.36 152.04 119.49 156.161 124.584 156.161Z" fill="#4677BC"/>
<path d="M121.303 146.728L121.802 146.62C122.094 146.55 122.348 146.371 122.513 146.121C122.679 145.871 122.743 145.568 122.694 145.273L121.978 141.998C121.962 141.925 121.976 141.849 122.016 141.785C122.057 141.722 122.121 141.678 122.194 141.662C122.416 141.615 122.645 141.612 122.868 141.655C123.091 141.698 123.303 141.784 123.491 141.91C123.68 142.035 123.842 142.197 123.967 142.386C124.092 142.575 124.178 142.787 124.22 143.009L124.652 145.017L127.353 144.424C127.556 144.378 127.766 144.373 127.971 144.409C128.176 144.444 128.372 144.52 128.548 144.631C128.724 144.743 128.876 144.888 128.995 145.058C129.115 145.228 129.199 145.42 129.244 145.623L130.162 149.827C130.206 150.03 130.209 150.239 130.171 150.443C130.134 150.647 130.056 150.841 129.944 151.015C129.831 151.189 129.684 151.339 129.513 151.457C129.342 151.574 129.15 151.657 128.947 151.7L126.705 152.186C126.075 152.332 125.418 152.309 124.801 152.118C124.172 151.957 123.512 151.957 122.883 152.118L122.478 152.199L121.303 146.728Z" fill="#F9F5D4"/>
<path d="M121.451 152.765L122.505 152.522L122.613 152.361L121.343 146.553L121.181 146.445L120.114 146.674L121.451 152.765Z" fill="#F9F5D4"/>
<path d="M132.349 69.1397C132.951 70.8582 134.049 72.3602 135.506 73.4559C136.962 74.5515 138.712 75.1917 140.533 75.2953C142.354 75.399 144.165 74.9615 145.737 74.0381C147.309 73.1148 148.572 71.7472 149.365 70.108C150.158 68.4689 150.446 66.632 150.193 64.8295C149.94 63.027 149.156 61.3399 147.942 59.9815C146.728 58.623 145.138 57.6543 143.372 57.1978C141.606 56.7412 139.744 56.8174 138.022 57.4166C135.713 58.2233 133.82 59.9105 132.757 62.1082C131.693 64.3058 131.547 66.8345 132.349 69.1397Z" fill="#4677BC"/>
<path d="M137.751 65.8653L138.251 65.7575C138.543 65.6897 138.798 65.5115 138.962 65.2603C139.125 65.009 139.185 64.7043 139.128 64.41L138.413 61.1356C138.405 61.0984 138.405 61.06 138.412 61.0227C138.42 60.9854 138.434 60.95 138.456 60.9185C138.477 60.8871 138.505 60.8603 138.537 60.8397C138.569 60.8191 138.605 60.8052 138.642 60.7987C138.863 60.7518 139.092 60.7497 139.314 60.7925C139.535 60.8352 139.747 60.922 139.934 61.0477C140.122 61.1734 140.282 61.3353 140.406 61.524C140.53 61.7128 140.614 61.9243 140.655 62.1462L141.1 64.1405L143.801 63.5611C144.003 63.5155 144.213 63.5105 144.417 63.5463C144.621 63.582 144.816 63.6579 144.991 63.7694C145.166 63.881 145.316 64.026 145.434 64.1961C145.552 64.3662 145.635 64.558 145.678 64.7604L146.597 68.951C146.686 69.36 146.609 69.7875 146.384 70.1406C146.159 70.4938 145.804 70.7442 145.395 70.8375L143.153 71.3226C142.523 71.4758 141.865 71.4758 141.235 71.3226C140.613 71.1345 139.953 71.1067 139.318 71.2418L138.926 71.3361L137.751 65.8653Z" fill="#F9F5D4"/>
<path d="M137.927 71.9021L138.994 71.673L139.102 71.4978L137.832 65.7036L137.657 65.5958L136.604 65.8249L137.927 71.9021Z" fill="#F9F5D4"/>
<path d="M176.754 161.847C185.316 161.847 192.258 154.921 192.258 146.378C192.258 137.834 185.316 130.909 176.754 130.909C168.191 130.909 161.25 137.834 161.25 146.378C161.25 154.921 168.191 161.847 176.754 161.847Z" fill="#EB4E63"/>
<path d="M176.619 143.791C176.619 143.791 180.589 137.74 183.506 141.54C188.138 147.618 176.619 154.759 176.619 154.759C176.619 154.759 166.463 148.022 169.448 142.847C172.594 137.444 176.619 143.791 176.619 143.791Z" fill="white"/>
<path d="M127.885 122.738C134.405 120.249 137.67 112.958 135.176 106.452C132.682 99.9456 125.374 96.6886 118.854 99.1769C112.333 101.665 109.069 108.957 111.562 115.463C114.056 121.969 121.364 125.226 127.885 122.738Z" fill="#EB4E63"/>
<path d="M124.098 108.998C124.098 108.998 129.054 105.751 129.986 109.551C131.472 115.588 120.533 117.191 120.533 117.191C120.533 117.191 115.131 108.891 119.06 105.967C122.99 103.043 124.098 108.998 124.098 108.998Z" fill="white"/>
<path d="M226.668 133.199C226.164 134.742 226.129 136.4 226.569 137.962C227.008 139.525 227.902 140.922 229.138 141.978C230.373 143.034 231.895 143.7 233.51 143.893C235.125 144.086 236.761 143.797 238.211 143.062C239.661 142.327 240.861 141.18 241.658 139.765C242.454 138.35 242.813 136.731 242.687 135.113C242.562 133.495 241.959 131.95 240.953 130.674C239.948 129.398 238.587 128.448 237.04 127.944C234.966 127.272 232.71 127.448 230.766 128.433C228.822 129.418 227.348 131.132 226.668 133.199Z" fill="#C0414C"/>
<path d="M234.839 134.412C234.839 134.412 237.85 132.014 238.688 134.412C240.038 138.239 233.043 139.937 233.043 139.937C233.043 139.937 228.991 134.897 231.395 132.768C233.799 130.639 234.839 134.412 234.839 134.412Z" fill="#F9F5D4"/>
<path d="M198.524 61.1087C198.978 62.6669 199.885 64.0557 201.131 65.0995C202.376 66.1433 203.904 66.7953 205.52 66.973C207.137 67.1507 208.77 66.8461 210.213 66.0979C211.656 65.3496 212.845 64.1911 213.628 62.769C214.412 61.3469 214.755 59.7249 214.615 58.1082C214.474 56.4914 213.857 54.9525 212.84 53.6859C211.823 52.4193 210.453 51.4819 208.902 50.9923C207.352 50.5027 205.69 50.4828 204.128 50.9351C203.091 51.2356 202.122 51.7372 201.279 52.4112C200.436 53.0852 199.734 53.9184 199.213 54.8632C198.693 55.808 198.364 56.8459 198.246 57.9175C198.127 58.9891 198.222 60.0735 198.524 61.1087Z" fill="#C0414C"/>
<path d="M205.965 57.5244C205.965 57.5244 207.099 53.8592 209.139 55.3684C212.407 57.7669 207.586 63.103 207.586 63.103C207.586 63.103 201.427 61.1895 202.184 58.1038C202.94 55.018 205.965 57.5244 205.965 57.5244Z" fill="#F9F5D4"/>
<path d="M57.8284 125.977C58.9318 127.17 60.3651 128.01 61.947 128.39C63.5289 128.77 65.1883 128.674 66.7152 128.113C68.2421 127.552 69.5679 126.551 70.5248 125.238C71.4818 123.925 72.0269 122.358 72.0912 120.736C72.1554 119.114 71.736 117.509 70.8859 116.125C70.0359 114.74 68.7933 113.639 67.3156 112.959C65.8379 112.28 64.1913 112.053 62.5843 112.307C60.9772 112.562 59.4819 113.286 58.2875 114.388C56.6878 115.865 55.741 117.915 55.6549 120.088C55.5688 122.261 56.3505 124.379 57.8284 125.977Z" fill="#C0414C"/>
<path d="M62.8931 119.455C62.8931 119.455 62.2584 115.669 64.8243 116.113C68.8758 116.814 66.9041 123.727 66.9041 123.727C66.9041 123.727 60.5432 124.764 59.8275 121.665C59.1117 118.566 62.8931 119.455 62.8931 119.455Z" fill="#F9F5D4"/>
</g>
<defs>
<clipPath id="clip0_70_10632">
<rect width="603" height="448" fill="white"/>
</clipPath>
</defs>
</svg>
