<svg width="20" height="21" viewBox="0 0 20 21" fill="none" xmlns="http://www.w3.org/2000/svg">
<path d="M17 2.74219H15V1.74219C15 1.47697 14.8946 1.22262 14.7071 1.03508C14.5196 0.847544 14.2652 0.742188 14 0.742188C13.7348 0.742188 13.4804 0.847544 13.2929 1.03508C13.1054 1.22262 13 1.47697 13 1.74219V2.74219H7V1.74219C7 1.47697 6.89464 1.22262 6.70711 1.03508C6.51957 0.847544 6.26522 0.742188 6 0.742188C5.73478 0.742188 5.48043 0.847544 5.29289 1.03508C5.10536 1.22262 5 1.47697 5 1.74219V2.74219H3C2.20435 2.74219 1.44129 3.05826 0.87868 3.62087C0.316071 4.18348 0 4.94654 0 5.74219V17.7422C0 18.5378 0.316071 19.3009 0.87868 19.8635C1.44129 20.4261 2.20435 20.7422 3 20.7422H17C17.7956 20.7422 18.5587 20.4261 19.1213 19.8635C19.6839 19.3009 20 18.5378 20 17.7422V5.74219C20 4.94654 19.6839 4.18348 19.1213 3.62087C18.5587 3.05826 17.7956 2.74219 17 2.74219ZM18 17.7422C18 18.0074 17.8946 18.2618 17.7071 18.4493C17.5196 18.6368 17.2652 18.7422 17 18.7422H3C2.73478 18.7422 2.48043 18.6368 2.29289 18.4493C2.10536 18.2618 2 18.0074 2 17.7422V10.7422H18V17.7422ZM18 8.74219H2V5.74219C2 5.47697 2.10536 5.22262 2.29289 5.03508C2.48043 4.84754 2.73478 4.74219 3 4.74219H5V5.74219C5 6.0074 5.10536 6.26176 5.29289 6.44929C5.48043 6.63683 5.73478 6.74219 6 6.74219C6.26522 6.74219 6.51957 6.63683 6.70711 6.44929C6.89464 6.26176 7 6.0074 7 5.74219V4.74219H13V5.74219C13 6.0074 13.1054 6.26176 13.2929 6.44929C13.4804 6.63683 13.7348 6.74219 14 6.74219C14.2652 6.74219 14.5196 6.63683 14.7071 6.44929C14.8946 6.26176 15 6.0074 15 5.74219V4.74219H17C17.2652 4.74219 17.5196 4.84754 17.7071 5.03508C17.8946 5.22262 18 5.47697 18 5.74219V8.74219Z" fill="#333647"/>
</svg>
