<svg width="150" height="174" viewBox="0 0 150 174" fill="none" xmlns="http://www.w3.org/2000/svg">
<path d="M3.00005 0C2.4067 0 1.82664 0.175941 1.3333 0.505585C0.839949 0.835229 0.455379 1.30375 0.228316 1.85193C0.00125319 2.40011 -0.0580939 3.00332 0.0576618 3.58527C0.173418 4.16721 0.459149 4.70175 0.878707 5.12131C1.29826 5.54087 1.83278 5.8266 2.41472 5.94235C2.99666 6.05811 3.59994 5.9987 4.14812 5.77164C4.6963 5.54458 5.16479 5.16004 5.49443 4.66669C5.82408 4.17334 6.00005 3.59334 6.00005 3C6.00005 2.20435 5.68399 1.44127 5.12138 0.878662C4.55878 0.316053 3.7957 0 3.00005 0Z" fill="#244D4D"/>
<path d="M3.00005 24C2.4067 24 1.82664 24.176 1.3333 24.5056C0.839949 24.8352 0.455379 25.3038 0.228316 25.8519C0.00125319 26.4001 -0.0580939 27.0033 0.0576618 27.5853C0.173418 28.1672 0.459149 28.7018 0.878707 29.1213C1.29826 29.5409 1.83278 29.8266 2.41472 29.9424C2.99666 30.0581 3.59994 29.9987 4.14812 29.7717C4.6963 29.5446 5.16479 29.1601 5.49443 28.6667C5.82408 28.1734 6.00005 27.5934 6.00005 27C6.00005 26.2044 5.68399 25.4413 5.12138 24.8787C4.55878 24.3161 3.7957 24 3.00005 24Z" fill="#244D4D"/>
<path d="M3.00005 48C2.4067 48 1.82664 48.176 1.3333 48.5056C0.839949 48.8352 0.455379 49.3038 0.228316 49.8519C0.00125319 50.4001 -0.0580939 51.0033 0.0576618 51.5853C0.173418 52.1672 0.459149 52.7018 0.878707 53.1213C1.29826 53.5409 1.83278 53.8266 2.41472 53.9424C2.99666 54.0581 3.59994 53.9987 4.14812 53.7717C4.6963 53.5446 5.16479 53.1601 5.49443 52.6667C5.82408 52.1734 6.00005 51.5934 6.00005 51C6.00005 50.2044 5.68399 49.4413 5.12138 48.8787C4.55878 48.3161 3.7957 48 3.00005 48Z" fill="#244D4D"/>
<path d="M3.00005 72C2.4067 72 1.82664 72.1759 1.3333 72.5056C0.839949 72.8352 0.455379 73.3038 0.228316 73.8519C0.00125319 74.4001 -0.0580939 75.0033 0.0576618 75.5853C0.173418 76.1672 0.459149 76.7018 0.878707 77.1213C1.29826 77.5409 1.83278 77.8266 2.41472 77.9424C2.99666 78.0581 3.59994 77.9987 4.14812 77.7716C4.6963 77.5446 5.16479 77.16 5.49443 76.6667C5.82408 76.1733 6.00005 75.5933 6.00005 75C6.00005 74.2044 5.68399 73.4413 5.12138 72.8787C4.55878 72.3161 3.7957 72 3.00005 72Z" fill="#244D4D"/>
<path d="M3.00005 96C2.4067 96 1.82664 96.1759 1.3333 96.5056C0.839949 96.8352 0.455379 97.3038 0.228316 97.8519C0.00125319 98.4001 -0.0580939 99.0033 0.0576618 99.5853C0.173418 100.167 0.459149 100.702 0.878707 101.121C1.29826 101.541 1.83278 101.827 2.41472 101.942C2.99666 102.058 3.59994 101.999 4.14812 101.772C4.6963 101.545 5.16479 101.16 5.49443 100.667C5.82408 100.173 6.00005 99.5933 6.00005 99C6.00005 98.2044 5.68399 97.4413 5.12138 96.8787C4.55878 96.3161 3.7957 96 3.00005 96Z" fill="#244D4D"/>
<path d="M3.00005 120C2.4067 120 1.82664 120.176 1.3333 120.506C0.839949 120.835 0.455379 121.304 0.228316 121.852C0.00125319 122.4 -0.0580939 123.003 0.0576618 123.585C0.173418 124.167 0.459149 124.702 0.878707 125.121C1.29826 125.541 1.83278 125.827 2.41472 125.942C2.99666 126.058 3.59994 125.999 4.14812 125.772C4.6963 125.545 5.16479 125.16 5.49443 124.667C5.82408 124.173 6.00005 123.593 6.00005 123C6.00005 122.204 5.68399 121.441 5.12138 120.879C4.55878 120.316 3.7957 120 3.00005 120Z" fill="#244D4D"/>
<path d="M3.00005 144C2.4067 144 1.82664 144.176 1.3333 144.506C0.839949 144.835 0.455379 145.304 0.228316 145.852C0.00125319 146.4 -0.0580939 147.003 0.0576618 147.585C0.173418 148.167 0.459149 148.702 0.878707 149.121C1.29826 149.541 1.83278 149.827 2.41472 149.942C2.99666 150.058 3.59994 149.999 4.14812 149.772C4.6963 149.545 5.16479 149.16 5.49443 148.667C5.82408 148.173 6.00005 147.593 6.00005 147C6.00005 146.204 5.68399 145.441 5.12138 144.879C4.55878 144.316 3.7957 144 3.00005 144Z" fill="#244D4D"/>
<path d="M3.00005 168C2.4067 168 1.82664 168.176 1.3333 168.506C0.839949 168.835 0.455379 169.304 0.228316 169.852C0.00125319 170.4 -0.0580939 171.003 0.0576618 171.585C0.173418 172.167 0.459149 172.702 0.878707 173.121C1.29826 173.541 1.83278 173.827 2.41472 173.942C2.99666 174.058 3.59994 173.999 4.14812 173.772C4.6963 173.545 5.16479 173.16 5.49443 172.667C5.82408 172.173 6.00005 171.593 6.00005 171C6.00005 170.204 5.68399 169.441 5.12138 168.879C4.55878 168.316 3.7957 168 3.00005 168Z" fill="#244D4D"/>
<path d="M27 1.52588e-05C26.4067 1.52588e-05 25.8266 0.175956 25.3333 0.5056C24.8399 0.835244 24.4554 1.30377 24.2283 1.85194C24.0013 2.40012 23.9419 3.00334 24.0577 3.58528C24.1734 4.16723 24.4591 4.70177 24.8787 5.12132C25.2983 5.54088 25.8328 5.82661 26.4147 5.94237C26.9967 6.05812 27.5999 5.99872 28.1481 5.77165C28.6963 5.54459 29.1648 5.16005 29.4944 4.6667C29.8241 4.17336 30 3.59336 30 3.00002C30 2.20437 29.684 1.44129 29.1214 0.878678C28.5588 0.316068 27.7957 1.52588e-05 27 1.52588e-05Z" fill="#244D4D"/>
<path d="M27 24C26.4067 24 25.8266 24.176 25.3333 24.5056C24.8399 24.8352 24.4554 25.3038 24.2283 25.8519C24.0013 26.4001 23.9419 27.0033 24.0577 27.5853C24.1734 28.1672 24.4591 28.7018 24.8787 29.1213C25.2983 29.5409 25.8328 29.8266 26.4147 29.9424C26.9967 30.0581 27.5999 29.9987 28.1481 29.7717C28.6963 29.5446 29.1648 29.1601 29.4944 28.6667C29.8241 28.1734 30 27.5934 30 27C30 26.2044 29.684 25.4413 29.1214 24.8787C28.5588 24.3161 27.7957 24 27 24Z" fill="#244D4D"/>
<path d="M27 48C26.4067 48 25.8266 48.176 25.3333 48.5056C24.8399 48.8352 24.4554 49.3038 24.2283 49.8519C24.0013 50.4001 23.9419 51.0033 24.0577 51.5853C24.1734 52.1672 24.4591 52.7018 24.8787 53.1213C25.2983 53.5409 25.8328 53.8266 26.4147 53.9424C26.9967 54.0581 27.5999 53.9987 28.1481 53.7717C28.6963 53.5446 29.1648 53.1601 29.4944 52.6667C29.8241 52.1734 30 51.5934 30 51C30 50.2044 29.684 49.4413 29.1214 48.8787C28.5588 48.3161 27.7957 48 27 48Z" fill="#244D4D"/>
<path d="M27 72C26.4067 72 25.8266 72.1759 25.3333 72.5056C24.8399 72.8352 24.4554 73.3038 24.2283 73.8519C24.0013 74.4001 23.9419 75.0033 24.0577 75.5853C24.1734 76.1672 24.4591 76.7018 24.8787 77.1213C25.2983 77.5409 25.8328 77.8266 26.4147 77.9424C26.9967 78.0581 27.5999 77.9987 28.1481 77.7716C28.6963 77.5446 29.1648 77.16 29.4944 76.6667C29.8241 76.1733 30 75.5933 30 75C30 74.2044 29.684 73.4413 29.1214 72.8787C28.5588 72.3161 27.7957 72 27 72Z" fill="#244D4D"/>
<path d="M27 96C26.4067 96 25.8266 96.1759 25.3333 96.5056C24.8399 96.8352 24.4554 97.3038 24.2283 97.8519C24.0013 98.4001 23.9419 99.0033 24.0577 99.5853C24.1734 100.167 24.4591 100.702 24.8787 101.121C25.2983 101.541 25.8328 101.827 26.4147 101.942C26.9967 102.058 27.5999 101.999 28.1481 101.772C28.6963 101.545 29.1648 101.16 29.4944 100.667C29.8241 100.173 30 99.5933 30 99C30 98.2044 29.684 97.4413 29.1214 96.8787C28.5588 96.3161 27.7957 96 27 96Z" fill="#244D4D"/>
<path d="M27 120C26.4067 120 25.8266 120.176 25.3333 120.506C24.8399 120.835 24.4554 121.304 24.2283 121.852C24.0013 122.4 23.9419 123.003 24.0577 123.585C24.1734 124.167 24.4591 124.702 24.8787 125.121C25.2983 125.541 25.8328 125.827 26.4147 125.942C26.9967 126.058 27.5999 125.999 28.1481 125.772C28.6963 125.545 29.1648 125.16 29.4944 124.667C29.8241 124.173 30 123.593 30 123C30 122.204 29.684 121.441 29.1214 120.879C28.5588 120.316 27.7957 120 27 120Z" fill="#244D4D"/>
<path d="M27 144C26.4067 144 25.8266 144.176 25.3333 144.506C24.8399 144.835 24.4554 145.304 24.2283 145.852C24.0013 146.4 23.9419 147.003 24.0577 147.585C24.1734 148.167 24.4591 148.702 24.8787 149.121C25.2983 149.541 25.8328 149.827 26.4147 149.942C26.9967 150.058 27.5999 149.999 28.1481 149.772C28.6963 149.545 29.1648 149.16 29.4944 148.667C29.8241 148.173 30 147.593 30 147C30 146.204 29.684 145.441 29.1214 144.879C28.5588 144.316 27.7957 144 27 144Z" fill="#244D4D"/>
<path d="M27 168C26.4067 168 25.8266 168.176 25.3333 168.506C24.8399 168.835 24.4554 169.304 24.2283 169.852C24.0013 170.4 23.9419 171.003 24.0577 171.585C24.1734 172.167 24.4591 172.702 24.8787 173.121C25.2983 173.541 25.8328 173.827 26.4147 173.942C26.9967 174.058 27.5999 173.999 28.1481 173.772C28.6963 173.545 29.1648 173.16 29.4944 172.667C29.8241 172.173 30 171.593 30 171C30 170.204 29.684 169.441 29.1214 168.879C28.5588 168.316 27.7957 168 27 168Z" fill="#244D4D"/>
<path d="M51 1.52588e-05C50.4067 1.52588e-05 49.8266 0.175956 49.3333 0.5056C48.8399 0.835244 48.4554 1.30377 48.2283 1.85194C48.0013 2.40012 47.9419 3.00334 48.0577 3.58528C48.1734 4.16723 48.4591 4.70177 48.8787 5.12132C49.2983 5.54088 49.8328 5.82661 50.4147 5.94237C50.9967 6.05812 51.5999 5.99872 52.1481 5.77165C52.6963 5.54459 53.1648 5.16005 53.4944 4.6667C53.8241 4.17336 54 3.59336 54 3.00002C54 2.20437 53.684 1.44129 53.1214 0.878678C52.5588 0.316068 51.7957 1.52588e-05 51 1.52588e-05Z" fill="#244D4D"/>
<path d="M51 24C50.4067 24 49.8266 24.176 49.3333 24.5056C48.8399 24.8352 48.4554 25.3038 48.2283 25.8519C48.0013 26.4001 47.9419 27.0033 48.0577 27.5853C48.1734 28.1672 48.4591 28.7018 48.8787 29.1213C49.2983 29.5409 49.8328 29.8266 50.4147 29.9424C50.9967 30.0581 51.5999 29.9987 52.1481 29.7717C52.6963 29.5446 53.1648 29.1601 53.4944 28.6667C53.8241 28.1734 54 27.5934 54 27C54 26.2044 53.684 25.4413 53.1214 24.8787C52.5588 24.3161 51.7957 24 51 24Z" fill="#244D4D"/>
<path d="M51 48C50.4067 48 49.8266 48.176 49.3333 48.5056C48.8399 48.8352 48.4554 49.3038 48.2283 49.8519C48.0013 50.4001 47.9419 51.0033 48.0577 51.5853C48.1734 52.1672 48.4591 52.7018 48.8787 53.1213C49.2983 53.5409 49.8328 53.8266 50.4147 53.9424C50.9967 54.0581 51.5999 53.9987 52.1481 53.7717C52.6963 53.5446 53.1648 53.1601 53.4944 52.6667C53.8241 52.1734 54 51.5934 54 51C54 50.2044 53.684 49.4413 53.1214 48.8787C52.5588 48.3161 51.7957 48 51 48Z" fill="#244D4D"/>
<path d="M51 72C50.4067 72 49.8266 72.1759 49.3333 72.5056C48.8399 72.8352 48.4554 73.3038 48.2283 73.8519C48.0013 74.4001 47.9419 75.0033 48.0577 75.5853C48.1734 76.1672 48.4591 76.7018 48.8787 77.1213C49.2983 77.5409 49.8328 77.8266 50.4147 77.9424C50.9967 78.0581 51.5999 77.9987 52.1481 77.7716C52.6963 77.5446 53.1648 77.16 53.4944 76.6667C53.8241 76.1733 54 75.5933 54 75C54 74.2044 53.684 73.4413 53.1214 72.8787C52.5588 72.3161 51.7957 72 51 72Z" fill="#244D4D"/>
<path d="M51 96C50.4067 96 49.8266 96.1759 49.3333 96.5056C48.8399 96.8352 48.4554 97.3038 48.2283 97.8519C48.0013 98.4001 47.9419 99.0033 48.0577 99.5853C48.1734 100.167 48.4591 100.702 48.8787 101.121C49.2983 101.541 49.8328 101.827 50.4147 101.942C50.9967 102.058 51.5999 101.999 52.1481 101.772C52.6963 101.545 53.1648 101.16 53.4944 100.667C53.8241 100.173 54 99.5933 54 99C54 98.2044 53.684 97.4413 53.1214 96.8787C52.5588 96.3161 51.7957 96 51 96Z" fill="#244D4D"/>
<path d="M51 120C50.4067 120 49.8266 120.176 49.3333 120.506C48.8399 120.835 48.4554 121.304 48.2283 121.852C48.0013 122.4 47.9419 123.003 48.0577 123.585C48.1734 124.167 48.4591 124.702 48.8787 125.121C49.2983 125.541 49.8328 125.827 50.4147 125.942C50.9967 126.058 51.5999 125.999 52.1481 125.772C52.6963 125.545 53.1648 125.16 53.4944 124.667C53.8241 124.173 54 123.593 54 123C54 122.204 53.684 121.441 53.1214 120.879C52.5588 120.316 51.7957 120 51 120Z" fill="#244D4D"/>
<path d="M51 144C50.4067 144 49.8266 144.176 49.3333 144.506C48.8399 144.835 48.4554 145.304 48.2283 145.852C48.0013 146.4 47.9419 147.003 48.0577 147.585C48.1734 148.167 48.4591 148.702 48.8787 149.121C49.2983 149.541 49.8328 149.827 50.4147 149.942C50.9967 150.058 51.5999 149.999 52.1481 149.772C52.6963 149.545 53.1648 149.16 53.4944 148.667C53.8241 148.173 54 147.593 54 147C54 146.204 53.684 145.441 53.1214 144.879C52.5588 144.316 51.7957 144 51 144Z" fill="#244D4D"/>
<path d="M51 168C50.4067 168 49.8266 168.176 49.3333 168.506C48.8399 168.835 48.4554 169.304 48.2283 169.852C48.0013 170.4 47.9419 171.003 48.0577 171.585C48.1734 172.167 48.4591 172.702 48.8787 173.121C49.2983 173.541 49.8328 173.827 50.4147 173.942C50.9967 174.058 51.5999 173.999 52.1481 173.772C52.6963 173.545 53.1648 173.16 53.4944 172.667C53.8241 172.173 54 171.593 54 171C54 170.204 53.684 169.441 53.1214 168.879C52.5588 168.316 51.7957 168 51 168Z" fill="#244D4D"/>
<path d="M75 1.52588e-05C74.4067 1.52588e-05 73.8266 0.175956 73.3333 0.5056C72.8399 0.835244 72.4554 1.30377 72.2283 1.85194C72.0013 2.40012 71.9419 3.00334 72.0577 3.58528C72.1734 4.16723 72.4591 4.70177 72.8787 5.12132C73.2983 5.54088 73.8328 5.82661 74.4147 5.94237C74.9967 6.05812 75.5999 5.99872 76.1481 5.77165C76.6963 5.54459 77.1648 5.16005 77.4944 4.6667C77.8241 4.17336 78 3.59336 78 3.00002C78 2.20437 77.684 1.44129 77.1214 0.878678C76.5588 0.316068 75.7957 1.52588e-05 75 1.52588e-05Z" fill="#244D4D"/>
<path d="M75 24C74.4067 24 73.8266 24.176 73.3333 24.5056C72.8399 24.8352 72.4554 25.3038 72.2283 25.8519C72.0013 26.4001 71.9419 27.0033 72.0577 27.5853C72.1734 28.1672 72.4591 28.7018 72.8787 29.1213C73.2983 29.5409 73.8328 29.8266 74.4147 29.9424C74.9967 30.0581 75.5999 29.9987 76.1481 29.7717C76.6963 29.5446 77.1648 29.1601 77.4944 28.6667C77.8241 28.1734 78 27.5934 78 27C78 26.2044 77.684 25.4413 77.1214 24.8787C76.5588 24.3161 75.7957 24 75 24Z" fill="#244D4D"/>
<path d="M75 48C74.4067 48 73.8266 48.176 73.3333 48.5056C72.8399 48.8352 72.4554 49.3038 72.2283 49.8519C72.0013 50.4001 71.9419 51.0033 72.0577 51.5853C72.1734 52.1672 72.4591 52.7018 72.8787 53.1213C73.2983 53.5409 73.8328 53.8266 74.4147 53.9424C74.9967 54.0581 75.5999 53.9987 76.1481 53.7717C76.6963 53.5446 77.1648 53.1601 77.4944 52.6667C77.8241 52.1734 78 51.5934 78 51C78 50.2044 77.684 49.4413 77.1214 48.8787C76.5588 48.3161 75.7957 48 75 48Z" fill="#244D4D"/>
<path d="M75 72C74.4067 72 73.8266 72.1759 73.3333 72.5056C72.8399 72.8352 72.4554 73.3038 72.2283 73.8519C72.0013 74.4001 71.9419 75.0033 72.0577 75.5853C72.1734 76.1672 72.4591 76.7018 72.8787 77.1213C73.2983 77.5409 73.8328 77.8266 74.4147 77.9424C74.9967 78.0581 75.5999 77.9987 76.1481 77.7716C76.6963 77.5446 77.1648 77.16 77.4944 76.6667C77.8241 76.1733 78 75.5933 78 75C78 74.2044 77.684 73.4413 77.1214 72.8787C76.5588 72.3161 75.7957 72 75 72Z" fill="#244D4D"/>
<path d="M75 96C74.4067 96 73.8266 96.1759 73.3333 96.5056C72.8399 96.8352 72.4554 97.3038 72.2283 97.8519C72.0013 98.4001 71.9419 99.0033 72.0577 99.5853C72.1734 100.167 72.4591 100.702 72.8787 101.121C73.2983 101.541 73.8328 101.827 74.4147 101.942C74.9967 102.058 75.5999 101.999 76.1481 101.772C76.6963 101.545 77.1648 101.16 77.4944 100.667C77.8241 100.173 78 99.5933 78 99C78 98.2044 77.684 97.4413 77.1214 96.8787C76.5588 96.3161 75.7957 96 75 96Z" fill="#244D4D"/>
<path d="M75 120C74.4067 120 73.8266 120.176 73.3333 120.506C72.8399 120.835 72.4554 121.304 72.2283 121.852C72.0013 122.4 71.9419 123.003 72.0577 123.585C72.1734 124.167 72.4591 124.702 72.8787 125.121C73.2983 125.541 73.8328 125.827 74.4147 125.942C74.9967 126.058 75.5999 125.999 76.1481 125.772C76.6963 125.545 77.1648 125.16 77.4944 124.667C77.8241 124.173 78 123.593 78 123C78 122.204 77.684 121.441 77.1214 120.879C76.5588 120.316 75.7957 120 75 120Z" fill="#244D4D"/>
<path d="M75 144C74.4067 144 73.8266 144.176 73.3333 144.506C72.8399 144.835 72.4554 145.304 72.2283 145.852C72.0013 146.4 71.9419 147.003 72.0577 147.585C72.1734 148.167 72.4591 148.702 72.8787 149.121C73.2983 149.541 73.8328 149.827 74.4147 149.942C74.9967 150.058 75.5999 149.999 76.1481 149.772C76.6963 149.545 77.1648 149.16 77.4944 148.667C77.8241 148.173 78 147.593 78 147C78 146.204 77.684 145.441 77.1214 144.879C76.5588 144.316 75.7957 144 75 144Z" fill="#244D4D"/>
<path d="M75 168C74.4067 168 73.8266 168.176 73.3333 168.506C72.8399 168.835 72.4554 169.304 72.2283 169.852C72.0013 170.4 71.9419 171.003 72.0577 171.585C72.1734 172.167 72.4591 172.702 72.8787 173.121C73.2983 173.541 73.8328 173.827 74.4147 173.942C74.9967 174.058 75.5999 173.999 76.1481 173.772C76.6963 173.545 77.1648 173.16 77.4944 172.667C77.8241 172.173 78 171.593 78 171C78 170.204 77.684 169.441 77.1214 168.879C76.5588 168.316 75.7957 168 75 168Z" fill="#244D4D"/>
<path d="M99 1.52588e-05C98.4067 1.52588e-05 97.8266 0.175956 97.3333 0.5056C96.8399 0.835244 96.4554 1.30377 96.2283 1.85194C96.0013 2.40012 95.9419 3.00334 96.0577 3.58528C96.1734 4.16723 96.4591 4.70177 96.8787 5.12132C97.2983 5.54088 97.8328 5.82661 98.4147 5.94237C98.9967 6.05812 99.5999 5.99872 100.148 5.77165C100.696 5.54459 101.165 5.16005 101.494 4.6667C101.824 4.17336 102 3.59336 102 3.00002C102 2.20437 101.684 1.44129 101.121 0.878678C100.559 0.316068 99.7957 1.52588e-05 99 1.52588e-05Z" fill="#244D4D"/>
<path d="M99 24C98.4067 24 97.8266 24.176 97.3333 24.5056C96.8399 24.8352 96.4554 25.3038 96.2283 25.8519C96.0013 26.4001 95.9419 27.0033 96.0577 27.5853C96.1734 28.1672 96.4591 28.7018 96.8787 29.1213C97.2983 29.5409 97.8328 29.8266 98.4147 29.9424C98.9967 30.0581 99.5999 29.9987 100.148 29.7717C100.696 29.5446 101.165 29.1601 101.494 28.6667C101.824 28.1734 102 27.5934 102 27C102 26.2044 101.684 25.4413 101.121 24.8787C100.559 24.3161 99.7957 24 99 24Z" fill="#244D4D"/>
<path d="M99 48C98.4067 48 97.8266 48.176 97.3333 48.5056C96.8399 48.8352 96.4554 49.3038 96.2283 49.8519C96.0013 50.4001 95.9419 51.0033 96.0577 51.5853C96.1734 52.1672 96.4591 52.7018 96.8787 53.1213C97.2983 53.5409 97.8328 53.8266 98.4147 53.9424C98.9967 54.0581 99.5999 53.9987 100.148 53.7717C100.696 53.5446 101.165 53.1601 101.494 52.6667C101.824 52.1734 102 51.5934 102 51C102 50.2044 101.684 49.4413 101.121 48.8787C100.559 48.3161 99.7957 48 99 48Z" fill="#244D4D"/>
<path d="M99 72C98.4067 72 97.8266 72.1759 97.3333 72.5056C96.8399 72.8352 96.4554 73.3038 96.2283 73.8519C96.0013 74.4001 95.9419 75.0033 96.0577 75.5853C96.1734 76.1672 96.4591 76.7018 96.8787 77.1213C97.2983 77.5409 97.8328 77.8266 98.4147 77.9424C98.9967 78.0581 99.5999 77.9987 100.148 77.7716C100.696 77.5446 101.165 77.16 101.494 76.6667C101.824 76.1733 102 75.5933 102 75C102 74.2044 101.684 73.4413 101.121 72.8787C100.559 72.3161 99.7957 72 99 72Z" fill="#244D4D"/>
<path d="M99 96C98.4067 96 97.8266 96.1759 97.3333 96.5056C96.8399 96.8352 96.4554 97.3038 96.2283 97.8519C96.0013 98.4001 95.9419 99.0033 96.0577 99.5853C96.1734 100.167 96.4591 100.702 96.8787 101.121C97.2983 101.541 97.8328 101.827 98.4147 101.942C98.9967 102.058 99.5999 101.999 100.148 101.772C100.696 101.545 101.165 101.16 101.494 100.667C101.824 100.173 102 99.5933 102 99C102 98.2044 101.684 97.4413 101.121 96.8787C100.559 96.3161 99.7957 96 99 96Z" fill="#244D4D"/>
<path d="M99 120C98.4067 120 97.8266 120.176 97.3333 120.506C96.8399 120.835 96.4554 121.304 96.2283 121.852C96.0013 122.4 95.9419 123.003 96.0577 123.585C96.1734 124.167 96.4591 124.702 96.8787 125.121C97.2983 125.541 97.8328 125.827 98.4147 125.942C98.9967 126.058 99.5999 125.999 100.148 125.772C100.696 125.545 101.165 125.16 101.494 124.667C101.824 124.173 102 123.593 102 123C102 122.204 101.684 121.441 101.121 120.879C100.559 120.316 99.7957 120 99 120Z" fill="#244D4D"/>
<path d="M99 144C98.4067 144 97.8266 144.176 97.3333 144.506C96.8399 144.835 96.4554 145.304 96.2283 145.852C96.0013 146.4 95.9419 147.003 96.0577 147.585C96.1734 148.167 96.4591 148.702 96.8787 149.121C97.2983 149.541 97.8328 149.827 98.4147 149.942C98.9967 150.058 99.5999 149.999 100.148 149.772C100.696 149.545 101.165 149.16 101.494 148.667C101.824 148.173 102 147.593 102 147C102 146.204 101.684 145.441 101.121 144.879C100.559 144.316 99.7957 144 99 144Z" fill="#244D4D"/>
<path d="M99 168C98.4067 168 97.8266 168.176 97.3333 168.506C96.8399 168.835 96.4554 169.304 96.2283 169.852C96.0013 170.4 95.9419 171.003 96.0577 171.585C96.1734 172.167 96.4591 172.702 96.8787 173.121C97.2983 173.541 97.8328 173.827 98.4147 173.942C98.9967 174.058 99.5999 173.999 100.148 173.772C100.696 173.545 101.165 173.16 101.494 172.667C101.824 172.173 102 171.593 102 171C102 170.204 101.684 169.441 101.121 168.879C100.559 168.316 99.7957 168 99 168Z" fill="#244D4D"/>
<path d="M123 1.52588e-05C122.407 1.52588e-05 121.827 0.175956 121.333 0.5056C120.84 0.835244 120.455 1.30377 120.228 1.85194C120.001 2.40012 119.942 3.00334 120.058 3.58528C120.173 4.16723 120.459 4.70177 120.879 5.12132C121.298 5.54088 121.833 5.82661 122.415 5.94237C122.997 6.05812 123.6 5.99872 124.148 5.77165C124.696 5.54459 125.165 5.16005 125.494 4.6667C125.824 4.17336 126 3.59336 126 3.00002C126 2.20437 125.684 1.44129 125.121 0.878678C124.559 0.316068 123.796 1.52588e-05 123 1.52588e-05Z" fill="#244D4D"/>
<path d="M123 24C122.407 24 121.827 24.176 121.333 24.5056C120.84 24.8352 120.455 25.3038 120.228 25.8519C120.001 26.4001 119.942 27.0033 120.058 27.5853C120.173 28.1672 120.459 28.7018 120.879 29.1213C121.298 29.5409 121.833 29.8266 122.415 29.9424C122.997 30.0581 123.6 29.9987 124.148 29.7717C124.696 29.5446 125.165 29.1601 125.494 28.6667C125.824 28.1734 126 27.5934 126 27C126 26.2044 125.684 25.4413 125.121 24.8787C124.559 24.3161 123.796 24 123 24Z" fill="#244D4D"/>
<path d="M123 48C122.407 48 121.827 48.176 121.333 48.5056C120.84 48.8352 120.455 49.3038 120.228 49.8519C120.001 50.4001 119.942 51.0033 120.058 51.5853C120.173 52.1672 120.459 52.7018 120.879 53.1213C121.298 53.5409 121.833 53.8266 122.415 53.9424C122.997 54.0581 123.6 53.9987 124.148 53.7717C124.696 53.5446 125.165 53.1601 125.494 52.6667C125.824 52.1734 126 51.5934 126 51C126 50.2044 125.684 49.4413 125.121 48.8787C124.559 48.3161 123.796 48 123 48Z" fill="#244D4D"/>
<path d="M123 72C122.407 72 121.827 72.1759 121.333 72.5056C120.84 72.8352 120.455 73.3038 120.228 73.8519C120.001 74.4001 119.942 75.0033 120.058 75.5853C120.173 76.1672 120.459 76.7018 120.879 77.1213C121.298 77.5409 121.833 77.8266 122.415 77.9424C122.997 78.0581 123.6 77.9987 124.148 77.7716C124.696 77.5446 125.165 77.16 125.494 76.6667C125.824 76.1733 126 75.5933 126 75C126 74.2044 125.684 73.4413 125.121 72.8787C124.559 72.3161 123.796 72 123 72Z" fill="#244D4D"/>
<path d="M123 96C122.407 96 121.827 96.1759 121.333 96.5056C120.84 96.8352 120.455 97.3038 120.228 97.8519C120.001 98.4001 119.942 99.0033 120.058 99.5853C120.173 100.167 120.459 100.702 120.879 101.121C121.298 101.541 121.833 101.827 122.415 101.942C122.997 102.058 123.6 101.999 124.148 101.772C124.696 101.545 125.165 101.16 125.494 100.667C125.824 100.173 126 99.5933 126 99C126 98.2044 125.684 97.4413 125.121 96.8787C124.559 96.3161 123.796 96 123 96Z" fill="#244D4D"/>
<path d="M123 120C122.407 120 121.827 120.176 121.333 120.506C120.84 120.835 120.455 121.304 120.228 121.852C120.001 122.4 119.942 123.003 120.058 123.585C120.173 124.167 120.459 124.702 120.879 125.121C121.298 125.541 121.833 125.827 122.415 125.942C122.997 126.058 123.6 125.999 124.148 125.772C124.696 125.545 125.165 125.16 125.494 124.667C125.824 124.173 126 123.593 126 123C126 122.204 125.684 121.441 125.121 120.879C124.559 120.316 123.796 120 123 120Z" fill="#244D4D"/>
<path d="M123 144C122.407 144 121.827 144.176 121.333 144.506C120.84 144.835 120.455 145.304 120.228 145.852C120.001 146.4 119.942 147.003 120.058 147.585C120.173 148.167 120.459 148.702 120.879 149.121C121.298 149.541 121.833 149.827 122.415 149.942C122.997 150.058 123.6 149.999 124.148 149.772C124.696 149.545 125.165 149.16 125.494 148.667C125.824 148.173 126 147.593 126 147C126 146.204 125.684 145.441 125.121 144.879C124.559 144.316 123.796 144 123 144Z" fill="#244D4D"/>
<path d="M123 168C122.407 168 121.827 168.176 121.333 168.506C120.84 168.835 120.455 169.304 120.228 169.852C120.001 170.4 119.942 171.003 120.058 171.585C120.173 172.167 120.459 172.702 120.879 173.121C121.298 173.541 121.833 173.827 122.415 173.942C122.997 174.058 123.6 173.999 124.148 173.772C124.696 173.545 125.165 173.16 125.494 172.667C125.824 172.173 126 171.593 126 171C126 170.204 125.684 169.441 125.121 168.879C124.559 168.316 123.796 168 123 168Z" fill="#244D4D"/>
<path d="M147 1.52588e-05C146.407 1.52588e-05 145.827 0.175956 145.333 0.5056C144.84 0.835244 144.455 1.30377 144.228 1.85194C144.001 2.40012 143.942 3.00334 144.058 3.58528C144.173 4.16723 144.459 4.70177 144.879 5.12132C145.298 5.54088 145.833 5.82661 146.415 5.94237C146.997 6.05812 147.6 5.99872 148.148 5.77165C148.696 5.54459 149.165 5.16005 149.494 4.6667C149.824 4.17336 150 3.59336 150 3.00002C150 2.20437 149.684 1.44129 149.121 0.878678C148.559 0.316068 147.796 1.52588e-05 147 1.52588e-05Z" fill="#244D4D"/>
<path d="M147 24C146.407 24 145.827 24.176 145.333 24.5056C144.84 24.8352 144.455 25.3038 144.228 25.8519C144.001 26.4001 143.942 27.0033 144.058 27.5853C144.173 28.1672 144.459 28.7018 144.879 29.1213C145.298 29.5409 145.833 29.8266 146.415 29.9424C146.997 30.0581 147.6 29.9987 148.148 29.7717C148.696 29.5446 149.165 29.1601 149.494 28.6667C149.824 28.1734 150 27.5934 150 27C150 26.2044 149.684 25.4413 149.121 24.8787C148.559 24.3161 147.796 24 147 24Z" fill="#244D4D"/>
<path d="M147 48C146.407 48 145.827 48.176 145.333 48.5056C144.84 48.8352 144.455 49.3038 144.228 49.8519C144.001 50.4001 143.942 51.0033 144.058 51.5853C144.173 52.1672 144.459 52.7018 144.879 53.1213C145.298 53.5409 145.833 53.8266 146.415 53.9424C146.997 54.0581 147.6 53.9987 148.148 53.7717C148.696 53.5446 149.165 53.1601 149.494 52.6667C149.824 52.1734 150 51.5934 150 51C150 50.2044 149.684 49.4413 149.121 48.8787C148.559 48.3161 147.796 48 147 48Z" fill="#244D4D"/>
<path d="M147 72C146.407 72 145.827 72.1759 145.333 72.5056C144.84 72.8352 144.455 73.3038 144.228 73.8519C144.001 74.4001 143.942 75.0033 144.058 75.5853C144.173 76.1672 144.459 76.7018 144.879 77.1213C145.298 77.5409 145.833 77.8266 146.415 77.9424C146.997 78.0581 147.6 77.9987 148.148 77.7716C148.696 77.5446 149.165 77.16 149.494 76.6667C149.824 76.1733 150 75.5933 150 75C150 74.2044 149.684 73.4413 149.121 72.8787C148.559 72.3161 147.796 72 147 72Z" fill="#244D4D"/>
<path d="M147 96C146.407 96 145.827 96.1759 145.333 96.5056C144.84 96.8352 144.455 97.3038 144.228 97.8519C144.001 98.4001 143.942 99.0033 144.058 99.5853C144.173 100.167 144.459 100.702 144.879 101.121C145.298 101.541 145.833 101.827 146.415 101.942C146.997 102.058 147.6 101.999 148.148 101.772C148.696 101.545 149.165 101.16 149.494 100.667C149.824 100.173 150 99.5933 150 99C150 98.2044 149.684 97.4413 149.121 96.8787C148.559 96.3161 147.796 96 147 96Z" fill="#244D4D"/>
<path d="M147 120C146.407 120 145.827 120.176 145.333 120.506C144.84 120.835 144.455 121.304 144.228 121.852C144.001 122.4 143.942 123.003 144.058 123.585C144.173 124.167 144.459 124.702 144.879 125.121C145.298 125.541 145.833 125.827 146.415 125.942C146.997 126.058 147.6 125.999 148.148 125.772C148.696 125.545 149.165 125.16 149.494 124.667C149.824 124.173 150 123.593 150 123C150 122.204 149.684 121.441 149.121 120.879C148.559 120.316 147.796 120 147 120Z" fill="#244D4D"/>
<path d="M147 144C146.407 144 145.827 144.176 145.333 144.506C144.84 144.835 144.455 145.304 144.228 145.852C144.001 146.4 143.942 147.003 144.058 147.585C144.173 148.167 144.459 148.702 144.879 149.121C145.298 149.541 145.833 149.827 146.415 149.942C146.997 150.058 147.6 149.999 148.148 149.772C148.696 149.545 149.165 149.16 149.494 148.667C149.824 148.173 150 147.593 150 147C150 146.204 149.684 145.441 149.121 144.879C148.559 144.316 147.796 144 147 144Z" fill="#244D4D"/>
<path d="M147 168C146.407 168 145.827 168.176 145.333 168.506C144.84 168.835 144.455 169.304 144.228 169.852C144.001 170.4 143.942 171.003 144.058 171.585C144.173 172.167 144.459 172.702 144.879 173.121C145.298 173.541 145.833 173.827 146.415 173.942C146.997 174.058 147.6 173.999 148.148 173.772C148.696 173.545 149.165 173.16 149.494 172.667C149.824 172.173 150 171.593 150 171C150 170.204 149.684 169.441 149.121 168.879C148.559 168.316 147.796 168 147 168Z" fill="#244D4D"/>
</svg>
