<svg width="58" height="58" viewBox="0 0 58 58" fill="none" xmlns="http://www.w3.org/2000/svg">
<path d="M48.8571 0H9.04762C4.05076 0 0 4.05742 0 9.0625V48.9375C0 53.9426 4.05076 58 9.04762 58H48.8571C53.854 58 57.9048 53.9426 57.9048 48.9375V9.0625C57.9048 4.05742 53.854 0 48.8571 0Z" fill="#1877F2"/>
<path d="M43.4286 29C43.4286 21.025 36.9143 14.5 28.9524 14.5C20.9905 14.5 14.4762 21.025 14.4762 29C14.4762 36.25 19.7238 42.2312 26.6 43.3187V33.1687H22.981V29H26.6V25.7375C26.6 22.1125 28.7714 20.1188 32.0286 20.1188C33.6572 20.1188 35.2857 20.4813 35.2857 20.4813V24.1063H33.4762C31.6667 24.1063 31.1238 25.1937 31.1238 26.2812V29H35.1048L34.381 33.1687H30.9429V43.5C38.181 42.4125 43.4286 36.25 43.4286 29Z" fill="white"/>
</svg>
