<svg width="59" height="58" viewBox="0 0 59 58" fill="none" xmlns="http://www.w3.org/2000/svg">
<path d="M49.6667 0H9.85719C4.86033 0 0.80957 4.05742 0.80957 9.0625V48.9375C0.80957 53.9426 4.86033 58 9.85719 58H49.6667C54.6636 58 58.7143 53.9426 58.7143 48.9375V9.0625C58.7143 4.05742 54.6636 0 49.6667 0Z" fill="url(#paint0_linear_297_5147)"/>
<path d="M29.762 16.6748C33.7429 16.6748 34.2858 16.6748 35.9143 16.6748C37.362 16.6748 38.0858 17.0373 38.6286 17.2186C39.3524 17.5811 39.8953 17.7623 40.4382 18.3061C40.981 18.8498 41.3429 19.3936 41.5239 20.1186C41.7048 20.6623 41.8858 21.3873 42.0667 22.8373C42.0667 24.4686 42.0667 24.8311 42.0667 28.9998C42.0667 33.1686 42.0667 33.5311 42.0667 35.1623C42.0667 36.6123 41.7048 37.3373 41.5239 37.8811C41.162 38.6061 40.981 39.1498 40.4382 39.6936C39.8953 40.2373 39.3524 40.5998 38.6286 40.7811C38.0858 40.9623 37.362 41.1436 35.9143 41.3248C34.2858 41.3248 33.9239 41.3248 29.762 41.3248C25.6001 41.3248 25.2382 41.3248 23.6096 41.3248C22.162 41.3248 21.4382 40.9623 20.8953 40.7811C20.1715 40.4186 19.6286 40.2373 19.0858 39.6936C18.5429 39.1498 18.181 38.6061 18.0001 37.8811C17.8191 37.3373 17.6382 36.6123 17.4572 35.1623C17.4572 33.5311 17.4572 33.1686 17.4572 28.9998C17.4572 24.8311 17.4572 24.4686 17.4572 22.8373C17.4572 21.3873 17.8191 20.6623 18.0001 20.1186C18.362 19.3936 18.5429 18.8498 19.0858 18.3061C19.6286 17.7623 20.1715 17.3998 20.8953 17.2186C21.4382 17.0373 22.162 16.8561 23.6096 16.6748C25.2382 16.6748 25.781 16.6748 29.762 16.6748ZM29.762 13.9561C25.6001 13.9561 25.2382 13.9561 23.6096 13.9561C21.981 13.9561 20.8953 14.3186 19.9905 14.6811C19.0858 15.0436 18.181 15.5873 17.2763 16.4936C16.3715 17.3998 16.0096 18.1248 15.4667 19.2123C15.1048 20.1186 14.9239 21.2061 14.7429 22.8373C14.7429 24.4686 14.7429 25.0123 14.7429 28.9998C14.7429 33.1686 14.7429 33.5311 14.7429 35.1623C14.7429 36.7936 15.1048 37.8811 15.4667 38.7873C15.8286 39.6936 16.3715 40.5998 17.2763 41.5061C18.181 42.4123 18.9048 42.7748 19.9905 43.3186C20.8953 43.6811 21.981 43.8623 23.6096 44.0436C25.2382 44.0436 25.781 44.0436 29.762 44.0436C33.7429 44.0436 34.2858 44.0436 35.9143 44.0436C37.5429 44.0436 38.6286 43.6811 39.5334 43.3186C40.4382 42.9561 41.3429 42.4123 42.2477 41.5061C43.1524 40.5998 43.5143 39.8748 44.0572 38.7873C44.4191 37.8811 44.6001 36.7936 44.781 35.1623C44.781 33.5311 44.781 32.9873 44.781 28.9998C44.781 25.0123 44.781 24.4686 44.781 22.8373C44.781 21.2061 44.4191 20.1186 44.0572 19.2123C43.6953 18.3061 43.1524 17.3998 42.2477 16.4936C41.3429 15.5873 40.6191 15.2248 39.5334 14.6811C38.6286 14.3186 37.5429 14.1373 35.9143 13.9561C34.2858 13.9561 33.9239 13.9561 29.762 13.9561Z" fill="white"/>
<path d="M29.762 21.2061C25.4191 21.2061 21.981 24.6498 21.981 28.9998C21.981 33.3498 25.4191 36.7936 29.762 36.7936C34.1048 36.7936 37.5429 33.3498 37.5429 28.9998C37.5429 24.6498 34.1048 21.2061 29.762 21.2061ZM29.762 34.0748C27.0477 34.0748 24.6953 31.8998 24.6953 28.9998C24.6953 26.2811 26.8667 23.9248 29.762 23.9248C32.4763 23.9248 34.8286 26.0998 34.8286 28.9998C34.8286 31.7186 32.4763 34.0748 29.762 34.0748Z" fill="white"/>
<path d="M37.7239 22.8373C38.7232 22.8373 39.5334 22.0258 39.5334 21.0248C39.5334 20.0238 38.7232 19.2123 37.7239 19.2123C36.7245 19.2123 35.9143 20.0238 35.9143 21.0248C35.9143 22.0258 36.7245 22.8373 37.7239 22.8373Z" fill="white"/>
<defs>
<linearGradient id="paint0_linear_297_5147" x1="0.809572" y1="-30.8125" x2="58.8621" y2="76.9517" gradientUnits="userSpaceOnUse">
<stop stop-color="#F50F0F"/>
<stop offset="1" stop-color="#601302"/>
</linearGradient>
</defs>
</svg>
