<svg width="59" height="58" viewBox="0 0 59 58" fill="none" xmlns="http://www.w3.org/2000/svg">
<path d="M49.5675 0H9.76123C4.76478 0 0.714355 4.05042 0.714355 9.04688V48.8531C0.714355 53.8496 4.76478 57.9 9.76123 57.9H49.5675C54.5639 57.9 58.6144 53.8496 58.6144 48.8531V9.04688C58.6144 4.05042 54.5639 0 49.5675 0Z" fill="#2867B2"/>
<path d="M21.7032 43.4251H15.5513V24.0648H21.7032V43.4251ZM18.6273 21.3507C16.637 21.3507 15.1895 19.9032 15.1895 17.9129C15.1895 15.9226 16.8179 14.4751 18.6273 14.4751C20.6176 14.4751 22.0651 15.9226 22.0651 17.9129C22.0651 19.9032 20.6176 21.3507 18.6273 21.3507ZM44.1395 43.4251H37.9876V32.9307C37.9876 29.8548 36.721 28.9501 34.9116 28.9501C33.1023 28.9501 31.2929 30.3976 31.2929 33.1117V43.4251H25.141V24.0648H30.931V26.7788C31.4738 25.5123 33.6451 23.522 36.721 23.522C40.1588 23.522 43.7776 25.5123 43.7776 31.4832V43.4251H44.1395Z" fill="white"/>
</svg>
