<svg width="81" height="81" viewBox="0 0 81 81" fill="none" xmlns="http://www.w3.org/2000/svg">
<g filter="url(#filter0_d_67_1006)">
<circle cx="40.5" cy="36.5" r="28.5" fill="white"/>
</g>
<g clip-path="url(#clip0_67_1006)">
<path d="M57.937 27.093C56.7394 27.6195 55.4708 27.9672 54.172 28.125C55.5411 27.3033 56.566 26.0133 57.057 24.494C55.7621 25.245 54.3527 25.7784 52.885 26.073C51.8981 25.0185 50.5907 24.3191 49.1657 24.0835C47.7407 23.8479 46.2777 24.0891 45.0039 24.7698C43.73 25.4505 42.7163 26.5326 42.1202 27.8482C41.5241 29.1639 41.3789 30.6394 41.707 32.046C36.254 31.791 31.42 29.171 28.187 25.213C27.5985 26.2139 27.2907 27.3549 27.296 28.516C27.2952 29.5954 27.561 30.6582 28.0697 31.6102C28.5784 32.5622 29.3143 33.3738 30.212 33.973C29.1717 33.9415 28.154 33.6614 27.244 33.156V33.235C27.2437 34.75 27.7673 36.2186 28.7259 37.3917C29.6845 38.5649 31.0193 39.3705 32.504 39.672C31.9416 39.8223 31.3622 39.8992 30.78 39.901C30.359 39.901 29.957 39.86 29.556 39.786C29.9786 41.0897 30.7971 42.2293 31.8976 43.046C32.9981 43.8628 34.3258 44.3162 35.696 44.343C33.3745 46.1611 30.5098 47.1475 27.561 47.144C27.0388 47.1461 26.5168 47.1167 25.998 47.056C29.0061 48.9835 32.5044 50.0067 36.077 50.004C48.144 50.004 54.738 40.009 54.738 31.353C54.738 31.077 54.738 30.796 54.717 30.514C56.0069 29.5895 57.1186 28.4389 57.998 27.118L57.937 27.093Z" fill="#438EFF"/>
</g>
<defs>
<filter id="filter0_d_67_1006" x="0" y="0" width="81" height="81" filterUnits="userSpaceOnUse" color-interpolation-filters="sRGB">
<feFlood flood-opacity="0" result="BackgroundImageFix"/>
<feColorMatrix in="SourceAlpha" type="matrix" values="0 0 0 0 0 0 0 0 0 0 0 0 0 0 0 0 0 0 127 0" result="hardAlpha"/>
<feOffset dy="4"/>
<feGaussianBlur stdDeviation="6"/>
<feComposite in2="hardAlpha" operator="out"/>
<feColorMatrix type="matrix" values="0 0 0 0 0 0 0 0 0 0 0 0 0 0 0 0 0 0 0.1 0"/>
<feBlend mode="normal" in2="BackgroundImageFix" result="effect1_dropShadow_67_1006"/>
<feBlend mode="normal" in="SourceGraphic" in2="effect1_dropShadow_67_1006" result="shape"/>
</filter>
<clipPath id="clip0_67_1006">
<rect width="32" height="32" fill="white" transform="translate(26 21)"/>
</clipPath>
</defs>
</svg>
