<svg width="59" height="58" viewBox="0 0 59 58" fill="none" xmlns="http://www.w3.org/2000/svg">
<path d="M49.7619 0H9.9524C4.95554 0 0.904785 4.05742 0.904785 9.0625V48.9375C0.904785 53.9426 4.95554 58 9.9524 58H49.7619C54.7588 58 58.8095 53.9426 58.8095 48.9375V9.0625C58.8095 4.05742 54.7588 0 49.7619 0Z" fill="#1DA1F2"/>
<path d="M44.3334 19.9375C43.2476 20.4813 42.1619 20.6625 40.8953 20.8438C42.1619 20.1187 43.0667 19.0312 43.4286 17.5812C42.3429 18.3062 41.0762 18.6687 39.6286 19.0312C38.5429 17.9437 36.9143 17.2188 35.2857 17.2188C31.4857 17.2188 28.5905 20.8438 29.4953 24.4688C24.6096 24.2875 20.2667 21.9313 17.1905 18.3063C15.5619 21.025 16.4667 24.4688 19 26.2812C18.0953 26.2812 17.1905 25.9188 16.2857 25.5563C16.2857 28.275 18.2762 30.8125 20.9905 31.5375C20.0857 31.7187 19.181 31.9 18.2762 31.7188C19 34.075 21.1715 35.8875 23.8857 35.8875C21.7143 37.5187 18.4572 38.425 15.381 38.0625C18.0953 39.6937 21.1715 40.7812 24.4286 40.7812C35.4667 40.7812 41.6191 31.5375 41.2572 23.0187C42.5238 22.2937 43.6096 21.2062 44.3334 19.9375Z" fill="white"/>
</svg>
